<svg xmlns="http://www.w3.org/2000/svg" xmlns:xlink="http://www.w3.org/1999/xlink" display="none">
<symbol viewBox="0 0 24 24" id="action">
	<rect x="4.05" y="4" width="16" height="16" rx="2.87" ry="2.87" fill="#1dccc0"/><path d="M8.24,9.34a0.83,0.83,0,0,0,.83.83h6a0.83,0.83,0,0,0,.83-0.83V9A0.83,0.83,0,0,0,15,8.13h-6A0.83,0.83,0,0,0,8.24,9V9.34Zm6.41-1.2a0.83,0.83,0,0,0-.83.83V9.34a0.83,0.83,0,0,0,.83.83H15a0.83,0.83,0,0,0,.83-0.83V9A0.83,0.83,0,0,0,15,8.13H14.66ZM8.24,12.19a0.83,0.83,0,0,0,.83.83h6a0.83,0.83,0,0,0,.83-0.83V11.81A0.83,0.83,0,0,0,15,11h-6a0.83,0.83,0,0,0-.83.83v0.38Zm5.59,0a0.83,0.83,0,0,0,.83.83H15a0.83,0.83,0,0,0,.83-0.83V11.81A0.83,0.83,0,0,0,15,11H14.66a0.83,0.83,0,0,0-.83.83v0.38ZM8.24,15a0.83,0.83,0,0,0,.83.83h6A0.83,0.83,0,0,0,15.86,15V14.66A0.83,0.83,0,0,0,15,13.83h-6a0.83,0.83,0,0,0-.83.83V15Zm5.59,0a0.83,0.83,0,0,0,.83.83H15A0.83,0.83,0,0,0,15.86,15V14.66A0.83,0.83,0,0,0,15,13.83H14.66a0.83,0.83,0,0,0-.83.83V15Z" fill="#fff"/><rect x="11.93" y="14.01" width="3.71" height="1.67" rx="0.83" ry="0.83" fill="#1dccc0"/><rect x="13.46" y="11.17" width="2.17" height="1.66" rx="0.83" ry="0.83" fill="#1dccc0"/><rect x="10.74" y="8.32" width="4.89" height="1.66" rx="0.83" ry="0.83" fill="#1dccc0"/>
</symbol>
<symbol viewBox="0 0 24 24" id="connect">
	<rect x="4" y="4" width="16" height="16" rx="2.87" ry="2.87" fill="#baac92"/>
	<path d="M9.53,7.31L9.37,7.4l-0.14.07a2.37,2.37,0,0,0-.79.87A5.09,5.09,0,0,0,8,9.51a7.7,7.7,0,0,0-.21,1.27c0,0.42-.05.82-0.05,1.17s0,0.66,0,1a8.76,8.76,0,0,0,.13,1.11,6.09,6.09,0,0,0,.3,1.07,2.72,2.72,0,0,0,.54.87,4,4,0,0,0,.44.42,1.25,1.25,0,0,0,.56.25V14a0.44,0.44,0,0,1-.21-0.13,0.62,0.62,0,0,1-.12-0.21,1.8,1.8,0,0,1-.07-0.25c0-.09,0-0.18,0-0.27s0-.14,0-0.25,0-.23,0-0.34,0-.21,0-0.31V11.61a1.67,1.67,0,0,1,0-.17c0-.08,0-0.17,0-0.26s0-.17,0-0.25,0-.12,0-0.15a2.47,2.47,0,0,1,0-.24,1,1,0,0,1,.08-0.26,0.72,0.72,0,0,1,.13-0.21A0.32,0.32,0,0,1,9.73,10V7.25h0Zm1.62,0A0.28,0.28,0,0,0,11,7.24H10.24v2.7H11a0.28,0.28,0,0,0,.15-0.06,0.17,0.17,0,0,0,.1-0.12V7.42A0.17,0.17,0,0,0,11.14,7.3ZM11,14.12H10.21v2.64H11a0.28,0.28,0,0,0,.12-0.06,0.16,0.16,0,0,0,.09-0.12V14.3a0.16,0.16,0,0,0-.09-0.12A0.29,0.29,0,0,0,11,14.12Z" style="fill: #fff;fill-rule: evenodd"/>
	<circle cx="10.74" cy="12" r="0.74" style="fill: #fff"/>
	<circle cx="13.14" cy="12" r="0.74" style="fill: #fff"/>
	<circle cx="15.54" cy="12" r="0.74" style="fill: #fff"/>
</symbol>
<symbol viewBox="0 0 24 24" id="followMe">
	<rect x="4" y="4" width="16" height="16" rx="2.87" ry="2.87" fill="#d7b475"/>
	<path d="M9.53,7.31L9.37,7.4l-0.14.07a2.37,2.37,0,0,0-.79.87A5.09,5.09,0,0,0,8,9.51a7.7,7.7,0,0,0-.21,1.27c0,0.42-.05.82-0.05,1.17s0,0.66,0,1a8.76,8.76,0,0,0,.13,1.11,6.09,6.09,0,0,0,.3,1.07,2.72,2.72,0,0,0,.54.87,4,4,0,0,0,.44.42,1.25,1.25,0,0,0,.56.25V14a0.44,0.44,0,0,1-.21-0.13,0.62,0.62,0,0,1-.12-0.21,1.8,1.8,0,0,1-.07-0.25c0-.09,0-0.18,0-0.27s0-.14,0-0.25,0-.23,0-0.34,0-.21,0-0.31V11.61a1.67,1.67,0,0,1,0-.17c0-.08,0-0.17,0-0.26s0-.17,0-0.25,0-.12,0-0.15a2.47,2.47,0,0,1,0-.24,1,1,0,0,1,.08-0.26,0.72,0.72,0,0,1,.13-0.21A0.32,0.32,0,0,1,9.73,10V7.25h0Zm1.62,0A0.28,0.28,0,0,0,11,7.24H10.24v2.7H11a0.28,0.28,0,0,0,.15-0.06,0.17,0.17,0,0,0,.1-0.12V7.42A0.17,0.17,0,0,0,11.14,7.3ZM11,14.12H10.21v2.64H11a0.28,0.28,0,0,0,.12-0.06,0.16,0.16,0,0,0,.09-0.12V14.3a0.16,0.16,0,0,0-.09-0.12A0.29,0.29,0,0,0,11,14.12Z" style="fill: #fff;fill-rule: evenodd"/>
	<circle cx="15" cy="9" r="0.74" style="fill: #fff"/>
	<circle cx="15" cy="12" r="0.74" style="fill: #fff"/>
	<circle cx="15" cy="15" r="0.74" style="fill: #fff"/>
</symbol>
<symbol viewBox="0 0 24 24" id="speak">
	<rect x="4" y="4" width="16" height="16" rx="2.87" ry="2.87" fill="#44c174"/><path d="M12,8.31c-2.3,0-4.17,1.54-4.17,3.44a3.09,3.09,0,0,0,1,2.2L8.4,15.69l1.85-.82a4.9,4.9,0,0,0,1.76.32c2.3,0,4.17-1.54,4.17-3.44S14.3,8.31,12,8.31Z" fill="#fff"/>
</symbol>
<symbol viewBox="0 0 24 24" id="rule">
	<path d="M12,8.31c-2.3,0-4.17,1.54-4.17,3.44a3.09,3.09,0,0,0,1,2.2L8.4,15.69l1.85-.82a4.9,4.9,0,0,0,1.76.32c2.3,0,4.17-1.54,4.17-3.44S14.3,8.31,12,8.31Z" fill="#fff"/><rect x="4" y="4" width="16" height="16" rx="2.87" ry="2.87" fill="#de6dd3"/><path d="M14.75,9.75L15,9.47,15.3,9.75l0.34-.35-0.78-.8L14.51,9l0.28,0.28-0.27.28a3.66,3.66,0,0,0-2.27-1V7.85H11.76V8.52a3.82,3.82,0,1,0,4,3.81A3.86,3.86,0,0,0,14.75,9.75Zm-2.58,3v0.7H11.84V12.8a0.5,0.5,0,0,1,0-.94V9.67h0.32v2.19A0.5,0.5,0,0,1,12.17,12.8Z" fill="#fff"/>
</symbol>
<symbol viewBox="0 0 24 24" id="record">
	<path d="M12,8.31c-2.3,0-4.17,1.54-4.17,3.44a3.09,3.09,0,0,0,1,2.2L8.4,15.69l1.85-.82a4.9,4.9,0,0,0,1.76.32c2.3,0,4.17-1.54,4.17-3.44S14.3,8.31,12,8.31Z" fill="#fff"/><path d="M14.75,9.75L15,9.47,15.3,9.75l0.34-.35-0.78-.8L14.51,9l0.28,0.28-0.27.28a3.66,3.66,0,0,0-2.27-1V7.85H11.76V8.52a3.82,3.82,0,1,0,4,3.81A3.86,3.86,0,0,0,14.75,9.75Zm-2.58,3v0.7H11.84V12.8a0.5,0.5,0,0,1,0-.94V9.67h0.32v2.19A0.5,0.5,0,0,1,12.17,12.8Z" fill="#fff"/><rect x="4" y="4" width="16" height="16" rx="2.87" ry="2.87" fill="#f9b73e"/><path d="M11.26,11.11c0,0.23,0,.46,0,0.69a2.34,2.34,0,0,0,0,.25,0.74,0.74,0,0,0,.86.64,0.75,0.75,0,0,0,.61-0.74c0-.55,0-1.09,0-1.64a1.13,1.13,0,0,0,0-.13,0.74,0.74,0,0,0-1.48.1Q11.26,10.69,11.26,11.11Z" fill="#fff"/><path d="M11,14.47V14h0.74V13.46l-0.27-.05a1.33,1.33,0,0,1-1-1.14c0-.13,0-0.26,0-0.39s0-.26,0-0.4H11v0.06c0,0.21,0,.41,0,0.62a0.83,0.83,0,0,0,.84.8,3.53,3.53,0,0,0,.45,0A0.83,0.83,0,0,0,13,12.11c0-.19,0-0.38,0-0.57V11.48h0.5a7.42,7.42,0,0,1,0,.79,1.28,1.28,0,0,1-.83,1.08,3.15,3.15,0,0,1-.41.11V14H13v0.5H11Z" fill="#fff" fill-rule="evenodd"/><path d="M11.26,11.11q0-.42,0-0.84a0.74,0.74,0,0,1,1.48-.1,1.13,1.13,0,0,1,0,.13c0,0.55,0,1.09,0,1.64a0.75,0.75,0,0,1-.61.74,0.74,0.74,0,0,1-.86-0.64,2.34,2.34,0,0,1,0-.25C11.26,11.57,11.26,11.34,11.26,11.11Z" fill="#fff" fill-rule="evenodd"/><path d="M10.43,7.35A0.9,0.9,0,0,0,9.37,8.43v7.13a0.9,0.9,0,0,0,1,1.09h3.17a0.89,0.89,0,0,0,1-1.08V8.43a0.89,0.89,0,0,0-1-1.08H10.43ZM9.78,8.9h4.46v6.22H9.78V8.9Zm1.58-.55a0.18,0.18,0,0,0,.2.19h0.88a0.18,0.18,0,0,0,.2-0.19,0.19,0.19,0,0,0-.2-0.2H11.56a0.19,0.19,0,0,0-.2.2h0Z" fill="#fff" fill-rule="evenodd"/>
</symbol>
<symbol viewBox="0 0 24 24" id="recordAnalyse">
	<path d="M12,8.31c-2.3,0-4.17,1.54-4.17,3.44a3.09,3.09,0,0,0,1,2.2L8.4,15.69l1.85-.82a4.9,4.9,0,0,0,1.76.32c2.3,0,4.17-1.54,4.17-3.44S14.3,8.31,12,8.31Z" fill="#fff"/><path d="M14.75,9.75L15,9.47,15.3,9.75l0.34-.35-0.78-.8L14.51,9l0.28,0.28-0.27.28a3.66,3.66,0,0,0-2.27-1V7.85H11.76V8.52a3.82,3.82,0,1,0,4,3.81A3.86,3.86,0,0,0,14.75,9.75Zm-2.58,3v0.7H11.84V12.8a0.5,0.5,0,0,1,0-.94V9.67h0.32v2.19A0.5,0.5,0,0,1,12.17,12.8Z" fill="#fff"/><rect x="4" y="4" width="16" height="16" rx="2.87" ry="2.87" fill="#000099"/><path d="M11.26,11.11c0,0.23,0,.46,0,0.69a2.34,2.34,0,0,0,0,.25,0.74,0.74,0,0,0,.86.64,0.75,0.75,0,0,0,.61-0.74c0-.55,0-1.09,0-1.64a1.13,1.13,0,0,0,0-.13,0.74,0.74,0,0,0-1.48.1Q11.26,10.69,11.26,11.11Z" fill="#fff"/><path d="M11,14.47V14h0.74V13.46l-0.27-.05a1.33,1.33,0,0,1-1-1.14c0-.13,0-0.26,0-0.39s0-.26,0-0.4H11v0.06c0,0.21,0,.41,0,0.62a0.83,0.83,0,0,0,.84.8,3.53,3.53,0,0,0,.45,0A0.83,0.83,0,0,0,13,12.11c0-.19,0-0.38,0-0.57V11.48h0.5a7.42,7.42,0,0,1,0,.79,1.28,1.28,0,0,1-.83,1.08,3.15,3.15,0,0,1-.41.11V14H13v0.5H11Z" fill="#fff" fill-rule="evenodd"/><path d="M11.26,11.11q0-.42,0-0.84a0.74,0.74,0,0,1,1.48-.1,1.13,1.13,0,0,1,0,.13c0,0.55,0,1.09,0,1.64a0.75,0.75,0,0,1-.61.74,0.74,0.74,0,0,1-.86-0.64,2.34,2.34,0,0,1,0-.25C11.26,11.57,11.26,11.34,11.26,11.11Z" fill="#fff" fill-rule="evenodd"/><path d="M10.43,7.35A0.9,0.9,0,0,0,9.37,8.43v7.13a0.9,0.9,0,0,0,1,1.09h3.17a0.89,0.89,0,0,0,1-1.08V8.43a0.89,0.89,0,0,0-1-1.08H10.43ZM9.78,8.9h4.46v6.22H9.78V8.9Zm1.58-.55a0.18,0.18,0,0,0,.2.19h0.88a0.18,0.18,0,0,0,.2-0.19,0.19,0.19,0,0,0-.2-0.2H11.56a0.19,0.19,0,0,0-.2.2h0Z" fill="#fff" fill-rule="evenodd"/>
</symbol>
<symbol viewBox="0 0 24 24" id="switchboard">
	<path d="M12,8.31c-2.3,0-4.17,1.54-4.17,3.44a3.09,3.09,0,0,0,1,2.2L8.4,15.69l1.85-.82a4.9,4.9,0,0,0,1.76.32c2.3,0,4.17-1.54,4.17-3.44S14.3,8.31,12,8.31Z" fill="#fff"/><path d="M14.75,9.75L15,9.47,15.3,9.75l0.34-.35-0.78-.8L14.51,9l0.28,0.28-0.27.28a3.66,3.66,0,0,0-2.27-1V7.85H11.76V8.52a3.82,3.82,0,1,0,4,3.81A3.86,3.86,0,0,0,14.75,9.75Zm-2.58,3v0.7H11.84V12.8a0.5,0.5,0,0,1,0-.94V9.67h0.32v2.19A0.5,0.5,0,0,1,12.17,12.8Z" fill="#fff"/><path d="M11.26,11.11c0,0.23,0,.46,0,0.69a2.34,2.34,0,0,0,0,.25,0.74,0.74,0,0,0,.86.64,0.75,0.75,0,0,0,.61-0.74c0-.55,0-1.09,0-1.64a1.13,1.13,0,0,0,0-.13,0.74,0.74,0,0,0-1.48.1Q11.26,10.69,11.26,11.11Z" fill="#fff"/><path d="M11,14.47V14h0.74V13.46l-0.27-.05a1.33,1.33,0,0,1-1-1.14c0-.13,0-0.26,0-0.39s0-.26,0-0.4H11v0.06c0,0.21,0,.41,0,0.62a0.83,0.83,0,0,0,.84.8,3.53,3.53,0,0,0,.45,0A0.83,0.83,0,0,0,13,12.11c0-.19,0-0.38,0-0.57V11.48h0.5a7.42,7.42,0,0,1,0,.79,1.28,1.28,0,0,1-.83,1.08,3.15,3.15,0,0,1-.41.11V14H13v0.5H11Z" fill="#fff" fill-rule="evenodd"/><path d="M11.26,11.11q0-.42,0-0.84a0.74,0.74,0,0,1,1.48-.1,1.13,1.13,0,0,1,0,.13c0,0.55,0,1.09,0,1.64a0.75,0.75,0,0,1-.61.74,0.74,0.74,0,0,1-.86-0.64,2.34,2.34,0,0,1,0-.25C11.26,11.57,11.26,11.34,11.26,11.11Z" fill="#fff" fill-rule="evenodd"/><path d="M10.43,7.35A0.9,0.9,0,0,0,9.37,8.43v7.13a0.9,0.9,0,0,0,1,1.09h3.17a0.89,0.89,0,0,0,1-1.08V8.43a0.89,0.89,0,0,0-1-1.08H10.43ZM9.78,8.9h4.46v6.22H9.78V8.9Zm1.58-.55a0.18,0.18,0,0,0,.2.19h0.88a0.18,0.18,0,0,0,.2-0.19,0.19,0.19,0,0,0-.2-0.2H11.56a0.19,0.19,0,0,0-.2.2h0Z" fill="#fff" fill-rule="evenodd"/><rect x="4" y="4" width="16" height="16" rx="2.87" ry="2.87" fill="#db5678"/><path d="M8.19,9.34a0.83,0.83,0,0,0,.83.83H9.39a0.83,0.83,0,0,0,.83-0.83V9a0.83,0.83,0,0,0-.83-0.83H9A0.83,0.83,0,0,0,8.19,9V9.34Zm2.79,0a0.83,0.83,0,0,0,.83.83h0.37A0.83,0.83,0,0,0,13,9.34V9a0.83,0.83,0,0,0-.83-0.83H11.81A0.83,0.83,0,0,0,11,9V9.34Zm3.62-1.2a0.83,0.83,0,0,0-.83.83V9.34a0.83,0.83,0,0,0,.83.83H15a0.83,0.83,0,0,0,.83-0.83V9A0.83,0.83,0,0,0,15,8.13H14.61ZM8.19,12.19A0.83,0.83,0,0,0,9,13H9.39a0.83,0.83,0,0,0,.83-0.83V11.81A0.83,0.83,0,0,0,9.39,11H9a0.83,0.83,0,0,0-.83.83v0.38Zm2.79,0a0.83,0.83,0,0,0,.83.83h0.37A0.83,0.83,0,0,0,13,12.19V11.81A0.83,0.83,0,0,0,12.19,11H11.81a0.83,0.83,0,0,0-.83.83v0.38Zm2.79,0a0.83,0.83,0,0,0,.83.83H15a0.83,0.83,0,0,0,.83-0.83V11.81A0.83,0.83,0,0,0,15,11H14.61a0.83,0.83,0,0,0-.83.83v0.38ZM8.19,15a0.83,0.83,0,0,0,.83.83H9.39A0.83,0.83,0,0,0,10.22,15V14.66a0.83,0.83,0,0,0-.83-0.83H9a0.83,0.83,0,0,0-.83.83V15ZM11,15a0.83,0.83,0,0,0,.83.83h0.37A0.83,0.83,0,0,0,13,15V14.66a0.83,0.83,0,0,0-.83-0.83H11.81a0.83,0.83,0,0,0-.83.83V15Zm2.79,0a0.83,0.83,0,0,0,.83.83H15A0.83,0.83,0,0,0,15.81,15V14.66A0.83,0.83,0,0,0,15,13.83H14.61a0.83,0.83,0,0,0-.83.83V15Z" fill="#fff"/>
</symbol>
<symbol viewBox="0 0 24 24" id="update">
	<rect x="4" y="4" width="16" height="16" rx="2.87" ry="2.87" fill="#53688e"/><path d="M9.69,11.44c0-.06,0-0.12.05-0.17l0-.11L9.84,11,9.9,10.9a2.38,2.38,0,0,1,.6-0.73L11,10.86l1-2.29-2.5.06L9.92,9.27a3.45,3.45,0,0,0-1.07,1.39v0l0,0.13,0,0.07q-0.06.16-.1,0.32v0a3.42,3.42,0,0,0,2.52,4.13l0.45-1a2.38,2.38,0,0,1-.8-0.28h0a2.36,2.36,0,0,1-1.15-2.55V11.44Z" fill="#fff" fill-rule="evenodd"/><path d="M15,13.58l0-.08a3.17,3.17,0,0,0,.13-0.3h0a3.48,3.48,0,0,0,.11-0.38h0a3.37,3.37,0,0,0,.1-0.81,3.44,3.44,0,0,0-2.62-3.34l-0.45,1a2.37,2.37,0,0,1,.86.31h0a2.37,2.37,0,0,1,1.09,2.56v0a2.38,2.38,0,0,1-.81,1.29L13,13.14l-1,2.29,2.5-.06-0.42-.64a3.46,3.46,0,0,0,.84-0.93h0Z" fill="#fff" fill-rule="evenodd"/>
</symbol>
<symbol viewBox="0 0 24 24" id="create">
	<rect x="4" y="4" width="16" height="16" rx="2.87" ry="2.87" fill="#8B9AE3"/>
	<path style="fill:#FFFFFF;" d="M16.8,10.2V9.8C16.8,9.3,16.5,9,16,9h-5.2V8.6c0-0.4-0.4-0.8-0.8-0.8H8c-0.4,0-0.8,0.4-0.8,0.8v1.2v0.4H16.8z"/>
	<path style="fill:#FFFFFF;" d="M7.2,10.6v0.6v4.2c0,0.4,0.4,0.8,0.8,0.8h8c0.4,0,0.8-0.4,0.8-0.8v-4.8H7.2z"/>
</symbol>
<symbol viewBox="0 0 24 24" id="query">
	<path d="M9.69,11.44c0-.06,0-0.12.05-0.17l0-.11L9.84,11,9.9,10.9a2.38,2.38,0,0,1,.6-0.73L11,10.86l1-2.29-2.5.06L9.92,9.27a3.45,3.45,0,0,0-1.07,1.39v0l0,0.13,0,0.07q-0.06.16-.1,0.32v0a3.42,3.42,0,0,0,2.52,4.13l0.45-1a2.38,2.38,0,0,1-.8-0.28h0a2.36,2.36,0,0,1-1.15-2.55V11.44Z" fill="#fff" fill-rule="evenodd"/><path d="M15,13.58l0-.08a3.17,3.17,0,0,0,.13-0.3h0a3.48,3.48,0,0,0,.11-0.38h0a3.37,3.37,0,0,0,.1-0.81,3.44,3.44,0,0,0-2.62-3.34l-0.45,1a2.37,2.37,0,0,1,.86.31h0a2.37,2.37,0,0,1,1.09,2.56v0a2.38,2.38,0,0,1-.81,1.29L13,13.14l-1,2.29,2.5-.06-0.42-.64a3.46,3.46,0,0,0,.84-0.93h0Z" fill="#fff" fill-rule="evenodd"/><path d="M10.63,10.32c0,0.43,0,.87,0,1.31a4.53,4.53,0,0,0,0,.47,1.37,1.37,0,0,0,1.59,1.21,1.41,1.41,0,0,0,1.13-1.4q0-1.55,0-3.11a2.16,2.16,0,0,0,0-.25,1.37,1.37,0,0,0-2.73.19Q10.63,9.52,10.63,10.32Z" fill="#fff"/><path d="M10.16,16.69V15.74h1.37v-1c-0.17,0-.33-0.06-0.5-0.1a2.51,2.51,0,0,1-1.8-2.16c0-.25,0-0.49,0-0.74s0-.5,0-0.75h0.92v0.11c0,0.39,0,.78,0,1.17a1.55,1.55,0,0,0,1.56,1.52,6.46,6.46,0,0,0,.83,0,1.56,1.56,0,0,0,1.33-1.58c0-.36,0-0.73,0-1.09V11h0.91v0a14.37,14.37,0,0,1,0,1.49,2.41,2.41,0,0,1-1.53,2.05,5.86,5.86,0,0,1-.76.21v0.95h1.37v0.95H10.16Z" fill="#fff" fill-rule="evenodd"/><path d="M10.63,10.32q0-.79,0-1.58a1.37,1.37,0,0,1,2.73-.19,2.16,2.16,0,0,1,0,.25q0,1.55,0,3.11a1.41,1.41,0,0,1-1.13,1.4,1.37,1.37,0,0,1-1.59-1.21,4.53,4.53,0,0,1,0-.47C10.63,11.19,10.63,10.75,10.63,10.32Z" fill="#fff" fill-rule="evenodd"/><rect x="4" y="4" width="16" height="16" rx="2.87" ry="2.87" fill="#fa895d"/><path d="M14,13.5a3.79,3.79,0,1,0-.49.49l2.71,2.71,0.49-.49Zm-2.51-.16H10.61V12.48h0.86v0.86Zm0.39-2.17a0.75,0.75,0,0,0-.42.67V12H10.65V11.83a1.37,1.37,0,0,1,.71-1.23A0.71,0.71,0,0,0,11.77,10a0.57,0.57,0,0,0-.67-0.54,0.65,0.65,0,0,0-.71.69H9.53a1.44,1.44,0,0,1,1.57-1.48A1.35,1.35,0,0,1,12.63,10,1.37,1.37,0,0,1,11.87,11.16Z" fill="#fff"/>
</symbol>
<symbol viewBox="0 0 24 24" id="public">
	<rect x="4" y="4" width="16" height="16" rx="1.92" ry="1.92" fill="#c6ce66"/><path d="M11.72,14.12H10.94v2.64h0.77a0.27,0.27,0,0,0,.12-0.06,0.16,0.16,0,0,0,.09-0.12V14.3a0.16,0.16,0,0,0-.09-0.12A0.29,0.29,0,0,0,11.72,14.12ZM10.26,7.31l-0.16.08L10,7.47a2.38,2.38,0,0,0-.79.87,5.1,5.1,0,0,0-.45,1.17,7.7,7.7,0,0,0-.21,1.27c0,0.43-.05.82-0.05,1.17s0,0.66,0,1a8.79,8.79,0,0,0,.13,1.12,6.1,6.1,0,0,0,.3,1.06,2.71,2.71,0,0,0,.54.87,3.94,3.94,0,0,0,.44.42,1.24,1.24,0,0,0,.56.25V14a0.43,0.43,0,0,1-.21-0.13,0.63,0.63,0,0,1-.12-0.21,1.86,1.86,0,0,1-.07-0.25c0-.09,0-0.18,0-0.27s0-.14,0-0.25,0-.23,0-0.34,0-.22,0-0.31V11.61a1.66,1.66,0,0,1,0-.17c0-.08,0-0.17,0-0.26s0-.17,0-0.25,0-.13,0-0.15,0-.15,0-0.24a1,1,0,0,1,.08-0.26,0.72,0.72,0,0,1,.13-0.21,0.32,0.32,0,0,1,.23-0.1V7.25h0Zm1.49-.07H11v2.7h0.74a0.28,0.28,0,0,0,.15-0.06A0.17,0.17,0,0,0,12,9.76V7.42a0.17,0.17,0,0,0-.09-0.12A0.28,0.28,0,0,0,11.76,7.24ZM14.88,11V9.79L12.73,12l2.15,2.21V13l-1-1Z" fill="#fff" fill-rule="evenodd"/>
</symbol>
<symbol viewBox="0 0 24 24" id="ddi">
	<rect x="4" y="4" width="16" height="16" rx="1.92" ry="1.92" fill="#b95e8a"/><path d="M14.36,14.12H13.58v2.64h0.77a0.26,0.26,0,0,0,.12-0.06,0.16,0.16,0,0,0,.09-0.12V14.3a0.16,0.16,0,0,0-.09-0.12A0.29,0.29,0,0,0,14.36,14.12ZM12.9,7.31l-0.16.08-0.14.07a2.38,2.38,0,0,0-.79.87,5.07,5.07,0,0,0-.45,1.17,7.73,7.73,0,0,0-.22,1.27c0,0.43-.05.82-0.05,1.17s0,0.66,0,1a8.72,8.72,0,0,0,.13,1.12,5.93,5.93,0,0,0,.3,1.06,2.71,2.71,0,0,0,.54.87,4,4,0,0,0,.44.42,1.25,1.25,0,0,0,.55.25V14a0.43,0.43,0,0,1-.21-0.13,0.61,0.61,0,0,1-.12-0.21,1.9,1.9,0,0,1-.07-0.25c0-.09,0-0.18,0-0.27s0-.14,0-0.25,0-.23,0-0.34,0-.22,0-0.31V11.61a1.62,1.62,0,0,1,0-.17c0-.08,0-0.17,0-0.26s0-.17,0-0.25,0-.13,0-0.15a2.23,2.23,0,0,1,0-.24,1,1,0,0,1,.08-0.26,0.73,0.73,0,0,1,.13-0.21,0.32,0.32,0,0,1,.23-0.1V7.25h0Zm1.62,0a0.28,0.28,0,0,0-.12-0.06H13.62v2.7h0.74a0.29,0.29,0,0,0,.15-0.06,0.17,0.17,0,0,0,.1-0.12V7.42A0.17,0.17,0,0,0,14.52,7.3ZM8.11,11l1,1-1,1v1.22L10.26,12,8.11,9.79V11Z" fill="#fff" fill-rule="evenodd"/>
</symbol>
<symbol viewBox="0 0 24 24" id="extension">
	<rect x="4" y="4" width="16" height="16" rx="1.92" ry="1.92" fill="#d0876a"/><path d="M10.26,7.31L10.1,7.4,10,7.47a2.38,2.38,0,0,0-.79.87,5.09,5.09,0,0,0-.45,1.17,7.69,7.69,0,0,0-.21,1.27c0,0.43-.05.82-0.05,1.17s0,0.66,0,1a8.79,8.79,0,0,0,.13,1.12,6.09,6.09,0,0,0,.3,1.06,2.71,2.71,0,0,0,.54.87,3.94,3.94,0,0,0,.44.42,1.25,1.25,0,0,0,.56.25V14a0.43,0.43,0,0,1-.21-0.13,0.63,0.63,0,0,1-.12-0.21,1.86,1.86,0,0,1-.07-0.25c0-.09,0-0.18,0-0.27s0-.14,0-0.25,0-.23,0-0.34,0-.22,0-0.31V11.61a1.67,1.67,0,0,1,0-.17c0-.08,0-0.17,0-0.26s0-.17,0-0.25,0-.13,0-0.15,0-.15,0-0.24a1,1,0,0,1,.08-0.26,0.73,0.73,0,0,1,.13-0.21,0.32,0.32,0,0,1,.23-0.1V7.25h0Zm1.46,6.81H10.94v2.64h0.77a0.27,0.27,0,0,0,.12-0.06,0.16,0.16,0,0,0,.09-0.12V14.3a0.16,0.16,0,0,0-.09-0.12A0.29,0.29,0,0,0,11.72,14.12ZM11.88,7.3a0.28,0.28,0,0,0-.12-0.06H11v2.7h0.74a0.28,0.28,0,0,0,.15-0.06A0.17,0.17,0,0,0,12,9.76V7.42A0.17,0.17,0,0,0,11.88,7.3Z" fill="#fff" fill-rule="evenodd"/><path d="M14.88,12.63h0.57l-0.09.65H14.78l-0.12.85H14l0.13-.85H13.46l-0.12.85H12.67l0.13-.85H12.22l0.09-.65h0.57l0.17-1.16H12.48l0.09-.64h0.58L13.28,10h0.67l-0.12.87h0.66L14.6,10h0.67l-0.13.87h0.57l-0.09.64H15Zm-1.16-1.16-0.17,1.16h0.65l0.17-1.16H13.73Z" fill="#fff"/>
</symbol>
<symbol viewBox="0 0 24 24" id="switchItem">
	<rect x="4" y="4" width="16" height="16" rx="1.92" ry="1.92" fill="#8972b3"/><path d="M9.18,9.79L9.13,9.72,8.61,9.2a0.45,0.45,0,0,0,0-.06,0.68,0.68,0,1,0-.68.68H8l0.41,0.41L9.11,13.8h5.62l0.57-4H9.18Zm0.7,3.31a0.53,0.53,0,1,1,.53-0.54A0.54,0.54,0,0,1,9.88,13.1Zm0-1.47a0.53,0.53,0,1,1,.53-0.53A0.53,0.53,0,0,1,9.88,11.63Zm1.37,1.47a0.53,0.53,0,1,1,.53-0.54A0.54,0.54,0,0,1,11.25,13.1Zm0-1.47a0.53,0.53,0,1,1,.53-0.53A0.53,0.53,0,0,1,11.25,11.63Zm1.37,1.47a0.53,0.53,0,1,1,.53-0.54A0.54,0.54,0,0,1,12.62,13.1Zm0-1.47a0.53,0.53,0,1,1,.53-0.53A0.53,0.53,0,0,1,12.62,11.63ZM14,13.1a0.53,0.53,0,1,1,.53-0.54A0.53,0.53,0,0,1,14,13.1Zm0-1.47a0.53,0.53,0,1,1,.53-0.53A0.53,0.53,0,0,1,14,11.63Zm-3.78,2.89a0.62,0.62,0,1,0,.62.62A0.62,0.62,0,0,0,10.21,14.53Zm3.37,0a0.62,0.62,0,1,0,.62.62A0.62,0.62,0,0,0,13.58,14.53Z" fill="#fff"/><circle cx="15.15" cy="9.84" r="1.6" fill="#fff"/><polygon points="15.21 8.93 15.09 8.93 15.09 9.78 14.25 9.78 14.25 9.9 15.09 9.9 15.09 10.74 15.21 10.74 15.21 9.9 16.06 9.9 16.06 9.78 15.21 9.78 15.21 8.93" fill="#8972b3"/>
</symbol>
<symbol viewBox="0 0 24 24" id="getInfo">
	<rect x="4" y="4" width="16" height="16" rx="1.92" ry="1.92" fill="#f27fad"/><path d="M13.23,8.36A1.15,1.15,0,0,1,12,9.51a1.15,1.15,0,1,1,0-2.29A1.14,1.14,0,0,1,13.23,8.36Zm-2.44,8.42v-6.6h2.41v6.6H10.79Z" fill="#fff"/>
</symbol>
<symbol viewBox="0 0 24 24" id="notify">
	<rect x="4" y="4" width="16" height="16" rx="2.87" ry="2.87" fill="#EC6281"/>
	<path fill="#FFFFFF" d="M14,9l-6.4,2.6c-0.1,0.1-0.2,0-0.2-0.2v-0.1c0-0.1-0.1-0.3-0.3-0.3H6.5c-0.1,0-0.3,0.1-0.3,0.3v1.4c0,0.1,0.1,0.3,0.3,0.3h0.6c0.1,0,0.3-0.1,0.3-0.3v-0.1c0-0.1,0.1-0.2,0.2-0.2l0.9,0.4c0.1,0.1,0.2,0.2,0.1,0.3l-0.2,0.4c-0.1,0.3,0,0.6,0.3,0.7l2.2,0.9c0.3,0.1,0.6,0,0.7-0.3l0.2-0.4c0.1-0.1,0.2-0.2,0.3-0.1l1.7,0.7c0.1,0.1,0.2,0,0.2-0.2V9.2C14.2,9.1,14.1,9,14,9z M11.5,14.4l-0.2,0.4c0,0.1-0.1,0.1-0.1,0.1L9,13.9c-0.1,0-0.1-0.1-0.1-0.1l0.2-0.4c0.1-0.1,0.2-0.2,0.3-0.1l1.9,0.8C11.5,14.1,11.6,14.2,11.5,14.4z"/>
	<path fill="#FFFFFF" d="M15.7,10c-0.1-0.1-0.2-0.2-0.3-0.1c0,0-0.1,0.1-0.1,0.1c-0.1,0.1-0.1,0.2-0.1,0.3c0.6,1.1,0.6,2.4,0,3.5c-0.1,0.1-0.1,0.3,0.1,0.3c0,0,0.1,0,0.1,0.1c0.1,0.1,0.3,0,0.3-0.1C16.4,12.8,16.4,11.2,15.7,10z"/>
	<path fill="#FFFFFF" d="M16.7,8.4c-0.1-0.1-0.2-0.2-0.3-0.1c-0.1,0-0.1,0.1-0.2,0.1c-0.1,0.1-0.1,0.2,0,0.3c1.3,2,1.3,4.6,0,6.6c-0.1,0.1-0.1,0.3,0,0.3c0.1,0,0.1,0.1,0.2,0.1c0.1,0.1,0.3,0,0.3-0.1C18.1,13.4,18.1,10.6,16.7,8.4z"/>
	</symbol>
<symbol viewBox="0 0 24 24" id="outbound">
	<rect x="4" y="4" width="16" height="16" rx="2.87" ry="2.87" fill="#EA4E55"/>
	<path d="M11.72,14.12H10.94v2.64h0.77a0.28,0.28,0,0,0,.12-0.06,0.16,0.16,0,0,0,.09-0.12V14.3a0.16,0.16,0,0,0-.09-0.12A0.29,0.29,0,0,0,11.72,14.12ZM10.26,7.31L10.1,7.4,10,7.47a2.37,2.37,0,0,0-.79.87,5.09,5.09,0,0,0-.45,1.17,7.71,7.71,0,0,0-.21,1.27c0,0.42-.05.82-0.05,1.17s0,0.66,0,1a8.76,8.76,0,0,0,.13,1.11,6.09,6.09,0,0,0,.3,1.07,2.72,2.72,0,0,0,.54.87,3.92,3.92,0,0,0,.44.42,1.25,1.25,0,0,0,.56.25V14a0.44,0.44,0,0,1-.21-0.13,0.62,0.62,0,0,1-.12-0.21,1.8,1.8,0,0,1-.07-0.25c0-.09,0-0.18,0-0.27s0-.14,0-0.25,0-.23,0-0.34,0-.21,0-0.31V11.61a1.69,1.69,0,0,1,0-.17c0-.08,0-0.17,0-0.26s0-.17,0-0.25,0-.12,0-0.15,0-.15,0-0.24a1,1,0,0,1,.08-0.26,0.72,0.72,0,0,1,.13-0.21,0.32,0.32,0,0,1,.23-0.1V7.25h0Zm1.49-.07H11v2.7h0.74a0.28,0.28,0,0,0,.15-0.06A0.17,0.17,0,0,0,12,9.76V7.42a0.17,0.17,0,0,0-.09-0.12A0.28,0.28,0,0,0,11.75,7.24Zm1.64,7L15.54,12,13.39,9.79V11l1,1-1,1v1.22Z" style="fill: #fff;fill-rule: evenodd"/>	
</symbol>
<symbol viewBox="0 0 24 24" id="inbound">
	<rect x="4" y="4" width="16" height="16" rx="2.87" ry="2.87" fill="#E7D025"/>
	<path d="M8.82,9.62a0.85,0.85,0,1,0,.85-0.85A0.85,0.85,0,0,0,8.82,9.62Zm2.33,0A0.85,0.85,0,1,0,12,8.77,0.85,0.85,0,0,0,11.15,9.62Zm3.18-.85a0.85,0.85,0,1,0,.85.85A0.85,0.85,0,0,0,14.33,8.77ZM8.82,12a0.85,0.85,0,1,0,.85-0.85A0.85,0.85,0,0,0,8.82,12Zm2.33,0A0.85,0.85,0,1,0,12,11.15,0.85,0.85,0,0,0,11.15,12Zm2.33,0a0.85,0.85,0,1,0,.85-0.85A0.85,0.85,0,0,0,13.49,12ZM8.82,14.38a0.85,0.85,0,1,0,.85-0.85A0.85,0.85,0,0,0,8.82,14.38Zm2.33,0A0.85,0.85,0,1,0,12,13.53,0.85,0.85,0,0,0,11.15,14.38Zm2.33,0a0.85,0.85,0,1,0,.85-0.85A0.85,0.85,0,0,0,13.49,14.38Z" style="fill: #fff"/>
	<polygon points="17.33 12 18.29 11.01 18.29 9.79 16.15 12 18.3 14.21 18.3 12.99 17.33 12" style="fill: #fff;fill-rule: evenodd"/>
	<polygon points="5.71 14.21 7.85 12 5.71 9.79 5.71 11.01 6.67 12 5.71 12.99 5.71 14.21" style="fill: #fff;fill-rule: evenodd"/>
</symbol>
<symbol viewBox="0 0 24 24" id="queue">
	<rect x="4" y="4" width="16" height="16" rx="2.87" ry="2.87" fill="#0095A5"/>
	<path d="M16.29,9.1l-0.09,0a1.57,1.57,0,0,0-.53.57,3.29,3.29,0,0,0-.3.76,4.91,4.91,0,0,0-.14.83c0,0.28,0,.53,0,0.76s0,0.43,0,.67a5.74,5.74,0,0,0,.09.73,3.89,3.89,0,0,0,.2.69,1.76,1.76,0,0,0,.36.57,2.58,2.58,0,0,0,.3.27,0.91,0.91,0,0,0,.38.16V13.44a0.31,0.31,0,0,1-.15-0.08,0.4,0.4,0,0,1-.08-0.14,1.26,1.26,0,0,1,0-.16c0-.06,0-0.12,0-0.17l0-.16c0-.07,0-0.15,0-0.22s0-.14,0-0.2V11.85s0-.06,0-0.11,0-.11,0-0.17,0-.11,0-0.16a1,1,0,0,0,0-.1,1.57,1.57,0,0,1,0-.16A0.64,0.64,0,0,1,16.29,11a0.44,0.44,0,0,1,.09-0.14,0.22,0.22,0,0,1,.15-0.07V9L16.39,9Zm1.17,4.42-0.08,0H16.87v1.72h0.49l0.08,0a0.17,0.17,0,0,0,.09-0.08V13.61A0.16,0.16,0,0,0,17.45,13.53Zm0-4.49L17.39,9H16.87v1.76h0.49a0.21,0.21,0,0,0,.1,0,0.12,0.12,0,0,0,.07-0.08V9.12A0.11,0.11,0,0,0,17.48,9Z" style="fill: #fff;fill-rule: evenodd"/>
    <path d="M7.57,9.1l-0.09,0A1.58,1.58,0,0,0,7,9.72a3.3,3.3,0,0,0-.3.76,4.92,4.92,0,0,0-.14.83c0,0.28,0,.53,0,0.76s0,0.43,0,.67a5.73,5.73,0,0,0,.09.73,3.89,3.89,0,0,0,.2.69,1.76,1.76,0,0,0,.36.57,2.6,2.6,0,0,0,.3.27,0.91,0.91,0,0,0,.38.16V13.44a0.31,0.31,0,0,1-.15-0.08,0.4,0.4,0,0,1-.08-0.14,1.23,1.23,0,0,1,0-.16c0-.06,0-0.12,0-0.17l0-.16c0-.07,0-0.15,0-0.22s0-.14,0-0.2V11.85s0-.06,0-0.11,0-.11,0-0.17,0-.11,0-0.16a1,1,0,0,0,0-.1s0-.1,0-0.16A0.66,0.66,0,0,1,7.58,11a0.45,0.45,0,0,1,.09-0.14,0.22,0.22,0,0,1,.15-0.07V9L7.68,9Zm1.17,4.42-0.08,0H8.16v1.72H8.65l0.08,0a0.17,0.17,0,0,0,.09-0.08V13.61A0.16,0.16,0,0,0,8.73,13.53ZM8.76,9L8.68,9H8.16v1.76H8.65a0.21,0.21,0,0,0,.1,0,0.12,0.12,0,0,0,.07-0.08V9.12A0.11,0.11,0,0,0,8.76,9Z" style="fill: #fff;fill-rule: evenodd"/>
    <polygon points="9.13 13.54 10.56 12.1 9.13 10.66 9.13 11.45 9.77 12.1 9.13 12.74 9.13 13.54" style="fill: #fff;fill-rule: evenodd"/>
    <path d="M11.93,9.1l-0.09,0a1.58,1.58,0,0,0-.53.57,3.29,3.29,0,0,0-.3.76,4.93,4.93,0,0,0-.14.83c0,0.28,0,.53,0,0.76s0,0.43,0,.67a5.72,5.72,0,0,0,.09.73,3.88,3.88,0,0,0,.2.69,1.76,1.76,0,0,0,.36.57,2.6,2.6,0,0,0,.3.27,0.91,0.91,0,0,0,.38.16V13.44A0.31,0.31,0,0,1,12,13.36a0.4,0.4,0,0,1-.08-0.14,1.23,1.23,0,0,1,0-.16c0-.06,0-0.12,0-0.17l0-.16c0-.07,0-0.15,0-0.22s0-.14,0-0.2V11.85s0-.06,0-0.11,0-.11,0-0.17,0-.11,0-0.16a1,1,0,0,0,0-.1s0-.1,0-0.16A0.66,0.66,0,0,1,11.93,11,0.45,0.45,0,0,1,12,10.85a0.22,0.22,0,0,1,.15-0.07V9L12,9Zm1.17,4.42-0.08,0H12.51v1.72H13l0.08,0a0.17,0.17,0,0,0,.09-0.08V13.61A0.16,0.16,0,0,0,13.09,13.53Zm0-4.49L13,9H12.51v1.76H13a0.21,0.21,0,0,0,.1,0,0.12,0.12,0,0,0,.07-0.08V9.12A0.11,0.11,0,0,0,13.12,9Z" style="fill: #fff;fill-rule: evenodd"/>
    <polygon points="13.48 13.54 14.92 12.1 13.48 10.66 13.48 11.45 14.13 12.1 13.48 12.74 13.48 13.54" style="fill: #fff;fill-rule: evenodd"/>
</symbol>
<symbol viewBox="0 0 24 24" id="finish">
	<rect x="4" y="4" width="16" height="16" rx="2.87" ry="2.87" fill="#636362"/>
	<path d="M14.85,6.65c0-.15-0.18-0.16-0.32-0.06h0c-1.65,1.21-3.94-.05-5.59,1.16A0.51,0.51,0,0,0,8.77,8L8.67,7.67a0.34,0.34,0,1,0-.53.14l2.5,9.66,0.53-.14L9.92,12.5a0.31,0.31,0,0,0,.17-0.07c1.68-1.24,4,.06,5.7-1.18h0A0.5,0.5,0,0,0,16,10.78Zm0.61,4.5a2.94,2.94,0,0,1-.81.31l-0.27-1a5.57,5.57,0,0,1-1.16.11l0.27,1h-1.2l-0.26-1a5.56,5.56,0,0,0-1.16.11l0.26,1a2.94,2.94,0,0,0-.81.31A0.2,0.2,0,0,1,10,11.9l-0.19-.77a2.82,2.82,0,0,1,1.07-.48l-0.26-1a2.8,2.8,0,0,0-1.07.47l-0.25-1a2.79,2.79,0,0,1,1.06-.47l-0.26-1a5.5,5.5,0,0,1,1.15-.11l0.26,1h1.19l-0.27-1a5.52,5.52,0,0,0,1.15-.11l0.27,1a2.8,2.8,0,0,0,1.06-.47l0.28,1a2.81,2.81,0,0,1-1.07.47l0.27,1A2.82,2.82,0,0,0,15.44,10l0.21,0.77A0.42,0.42,0,0,1,15.46,11.16Z" style="fill: #fff"/>
    <path d="M11.74,9.51l0.26,1h1.2l-0.27-1H11.74Z" style="fill: #fff"/>
    <path d="M14.09,9.4l-0.28-1a5.51,5.51,0,0,1-1.15.11l0.27,1A5.53,5.53,0,0,0,14.09,9.4Z" style="fill: #fff"/>
    <path d="M11.48,8.47a5.52,5.52,0,0,0-1.15.11l0.26,1a5.53,5.53,0,0,1,1.16-.11Z" style="fill: #fff"/>
</symbol>
<symbol viewBox="0 0 24 24" id="voicemail">
	<rect x="4" y="4" width="16" height="16" rx="2.87" ry="2.87" fill="#7FC9C9"/>
	<path d="M15.37,9.53a2.47,2.47,0,0,0-2.06,3.83l0.23,0.35h-3.1l0.23-.35a2.47,2.47,0,1,0-2.06,1.11h6.82A2.47,2.47,0,0,0,15.37,9.53Zm-6.75,1A1.49,1.49,0,1,1,7.13,12,1.49,1.49,0,0,1,8.63,10.51Zm6.75,0A1.49,1.49,0,1,1,13.88,12,1.49,1.49,0,0,1,15.37,10.51Z" style="fill: #fff"/>
</symbol>
<symbol viewBox="0 0 24 24" id="fromPolicy">
	<rect x="4" y="4" width="16" height="16" rx="2.87" ry="2.87" fill="#963CBD"/>
    <polygon points="15.93 14.63 18.11 12.38 15.93 10.13 15.93 11.37 16.91 12.38 15.93 13.38 15.93 14.63" style="fill: #fff;fill-rule: evenodd"/>
    <path d="M14.11,9.74L11.82,7.45l0,0H7a0.07,0.07,0,0,0-.07.07v9a0.07,0.07,0,0,0,.07.07h7.1a0.07,0.07,0,0,0,.07-0.07V9.79A0.08,0.08,0,0,0,14.11,9.74ZM13.47,15.9H7.55V8.09h3.9a1.37,1.37,0,0,1,.36,1.07V10h0.8a1.15,1.15,0,0,1,.86.31V15.9Z" style="fill: #fff"/>
    <rect x="8.2" y="14.18" width="4.46" height="0.49" style="fill: #fff"/>
    <rect x="8.2" y="13.09" width="4.46" height="0.49" style="fill: #fff"/>
    <rect x="8.2" y="12" width="4.46" height="0.49" style="fill: #fff"/>
    <rect x="8.2" y="10.92" width="4.46" height="0.49" style="fill: #fff"/>
</symbol>
<symbol viewBox="0 0 24 24" id="toPolicy">
	<rect x="4" y="4" width="16" height="16" rx="2.87" ry="2.87" fill="#963CBD"/>
    <polygon points="6 14.79 8.19 12.54 6 10.3 6 11.54 6.98 12.54 6 13.55 6 14.79" style="fill: #fff;fill-rule: evenodd"/>
    <path d="M17,9.74L14.69,7.45l0,0H9.83a0.07,0.07,0,0,0-.07.07v9a0.07,0.07,0,0,0,.07.07h7.1A0.07,0.07,0,0,0,17,16.5V9.79A0.08,0.08,0,0,0,17,9.74ZM16.34,15.9H10.42V8.09h3.9a1.37,1.37,0,0,1,.36,1.07V10h0.8a1.15,1.15,0,0,1,.86.31V15.9Z" style="fill: #fff"/>
    <rect x="11.08" y="14.18" width="4.46" height="0.49" style="fill: #fff"/>
    <rect x="11.08" y="13.09" width="4.46" height="0.49" style="fill: #fff"/>
    <rect x="11.08" y="12" width="4.46" height="0.49" style="fill: #fff"/>
    <rect x="11.08" y="10.92" width="4.46" height="0.49" style="fill: #fff"/>
</symbol>
<symbol viewBox="0 0 24 24" id="callPolicy">
	<rect x="4" y="4" width="16" height="16" rx="2.87" ry="2.87" fill="#009EFF"/>
    <path d="M13.57,13.48l-0.73.27,0.9,2.48L14.47,16a0.28,0.28,0,0,0,.1-0.1,0.16,0.16,0,0,0,0-.14l-0.78-2.14a0.16,0.16,0,0,0-.12-0.08A0.29,0.29,0,0,0,13.57,13.48Zm-3.7-5.9-0.12.13-0.1.11a2.37,2.37,0,0,0-.44,1.08,5.09,5.09,0,0,0,0,1.26,7.7,7.7,0,0,0,.23,1.27c0.11,0.41.23,0.79,0.35,1.12s0.23,0.62.38,1a8.77,8.77,0,0,0,.51,1,6.09,6.09,0,0,0,.65.9,2.72,2.72,0,0,0,.81.63,4,4,0,0,0,.56.24,1.25,1.25,0,0,0,.61,0l-0.9-2.49a0.44,0.44,0,0,1-.24,0,0.62,0.62,0,0,1-.19-0.16,1.8,1.8,0,0,1-.15-0.22l-0.12-.24L11.55,13l-0.14-.31-0.13-.28-0.07-.15v0L11.13,12l0-.07-0.05-.15v0a1.67,1.67,0,0,1,0-.16l-0.07-.25c0-.08-0.05-0.16-0.07-0.24l0-.15a2.47,2.47,0,0,1,0-.24,1,1,0,0,1,0-.27,0.72,0.72,0,0,1,.05-0.25A0.32,0.32,0,0,1,11,10L10.06,7.45l0,0ZM11.39,7a0.28,0.28,0,0,0-.14,0l-0.73.26L11.44,9.8l0.7-.25a0.28,0.28,0,0,0,.12-0.11,0.17,0.17,0,0,0,0-.14l-0.8-2.2A0.17,0.17,0,0,0,11.39,7Z" style="fill: #fff;fill-rule: evenodd"/>
</symbol>
<symbol viewBox="0 0 24 24" id="dataAnalytics">
	<rect x="4" y="4" width="16" height="16" rx="2.87" ry="2.87" fill="#b7b54c"/>
    <polygon points="11.27 14.15 9.73 14.15 9.73 14.63 11.27 14.63 11.59 14.63 14.12 14.63 14.12 14.15 11.59 14.15 11.27 14.15" style="fill: #fff"/>
    <path d="M16.36,8.22a1.11,1.11,0,0,0-1.09,1.27l-2-2,0,0H8.5a0.07,0.07,0,0,0-.07.07v5l-0.35.43a1.11,1.11,0,1,0,.35,1.79v1.7a0.07,0.07,0,0,0,.07.07h7a0.07,0.07,0,0,0,.07-0.07V10.79l0.36-.44a1.1,1.1,0,0,0,.43.09A1.11,1.11,0,1,0,16.36,8.22ZM7.64,14.51A0.55,0.55,0,1,1,8.19,14,0.55,0.55,0,0,1,7.64,14.51ZM9.08,8.15h3.84a1.35,1.35,0,0,1,.35,1.05V10h0.79a1.14,1.14,0,0,1,.85.3v0.27L14,11.66a1.09,1.09,0,0,0-1.14.18l-1.41-.92a1.09,1.09,0,0,0,.05-0.32,1.11,1.11,0,1,0-2,.62l-0.43.52V8.15ZM14,13.08l-0.08.06h0l-0.09,0h0l-0.08,0H13.5l-0.07,0h0l-0.09,0h0l-0.08-.06A0.55,0.55,0,1,1,14,13.08ZM11,10.6a0.55,0.55,0,1,1-.55-0.55A0.55,0.55,0,0,1,11,10.6Zm3.93,5.25H9.08V12.72L10,11.62a1.11,1.11,0,0,0,.44.09,1.1,1.1,0,0,0,.71-0.27L12,12H9.73v0.48h2.79a1,1,0,0,0,0,.2,1.1,1.1,0,0,0,.08.4H9.73v0.48h3.21a1.1,1.1,0,0,0,.67.23,1.11,1.11,0,0,0,.92-1.73l0.39-.48v4.27Zm1.44-6a0.55,0.55,0,1,1,.55-0.55A0.55,0.55,0,0,1,16.36,9.88Z" style="fill: #fff"/>
</symbol>
<symbol viewBox="0 0 24 24" id="debug">
	<rect x="4" y="4" width="16" height="16" rx="2.87" ry="2.87" fill="#BF948C"/>
    <path d="M13.9,10.45a0.2,0.2,0,0,1,0-.15,1.93,1.93,0,0,0-.34-1.46,0.2,0.2,0,0,1,0-.16,1.27,1.27,0,0,0-.33-1.39A1.2,1.2,0,0,0,12.29,7V8.1H11.7V7H11.56a1.28,1.28,0,0,0-1.05,1.73,0.23,0.23,0,0,1,0,.24,1.87,1.87,0,0,0-.3,1.38,0.2,0.2,0,0,1,0,.15,3.46,3.46,0,0,0-.31,4.62,2.73,2.73,0,0,0,3.7.63,3.14,3.14,0,0,0,1.4-2.37A3.35,3.35,0,0,0,13.9,10.45Z" style="fill: #fff;fill-rule: evenodd"/>
    <path d="M7.15,10l1.33,0.92L9,11.25l0.4-.67C8.91,10.28,8.48,10,8,9.67a0.55,0.55,0,0,1-.31-0.58,0.37,0.37,0,0,0-.38-0.41,0.39,0.39,0,0,0-.39.42c0,0.17,0,.34,0,0.5A0.44,0.44,0,0,0,7.15,10Z" style="fill: #fff;fill-rule: evenodd"/>
    <path d="M16.92,10a0.35,0.35,0,0,0,.15-0.31c0-.19,0-0.39,0-0.58a0.38,0.38,0,0,0-.77,0,1.92,1.92,0,0,0,0,.3,0.18,0.18,0,0,1-.09.18L15.57,10l-0.9.62,0.4,0.67Z" style="fill: #fff;fill-rule: evenodd"/>
    <path d="M7.09,15.77A0.37,0.37,0,0,0,7,16a4.54,4.54,0,0,0,0,.68,0.38,0.38,0,0,0,.41.35,0.39,0.39,0,0,0,.36-0.4,2.22,2.22,0,0,1,0-.28,0.24,0.24,0,0,1,.08-0.15l0.78-.54,0.71-.49L8.91,14.5Z" style="fill: #fff;fill-rule: evenodd"/>
    <path d="M16.85,15.7l-1.22-.84-0.51-.35-0.38.67,0.06,0c0.41,0.28.8,0.57,1.22,0.83a0.47,0.47,0,0,1,.28.54,0.23,0.23,0,0,0,0,.06,0.39,0.39,0,0,0,.4.38,0.39,0.39,0,0,0,.38-0.4c0-.17,0-0.35,0-0.52A0.46,0.46,0,0,0,16.85,15.7Z" style="fill: #fff;fill-rule: evenodd"/>
    <path d="M8.61,13.32V12.55H6.77a0.39,0.39,0,1,0,0,.77H8.61Z" style="fill: #fff;fill-rule: evenodd"/>
    <path d="M17.2,12.54H15.42V13.3h1.86A0.36,0.36,0,0,0,17.63,13,0.39,0.39,0,0,0,17.2,12.54Z" style="fill: #fff;fill-rule: evenodd"/>
</symbol>
<symbol viewBox="0 0 24 24" id="script">
	<rect x="4" y="4" width="16" height="16" rx="2.87" ry="2.87" fill="#5a9cdd"/>
    <g>
    	<path style="fill: #fff" d="M11.5 14.5l.1-.7.9-.6-.2-.9h-.1l-1-.1-.4-.6.2-1.1-.7-.5-.1.1-.8.7-.6-.1-.6-1-.9.2v.1l-.1 1.1-.5.4-1.1-.3-.5.8.1.1.6.8v.7l-1 .6.2.9h.1l1 .1.4.5-.2 1.2.8.5.1-.1.7-.7.7.1.6 1 .8-.2v-.2l.1-1 .5-.4 1.2.3.4-.8-.1-.1-.6-.8zm-1.3.1c-.3.5-.6.7-1.1.9-.5.1-.9 0-1.3-.2-.9-.6-1.1-1.7-.6-2.6.2-.4.6-.7 1-.8.5-.1 1 0 1.4.2.8.6 1.1 1.7.6 2.5z"/>
    	<path style="fill: #fff" d="M18.2 11.1l.1-.7.9-.6-.2-.9h-.1l-1-.1-.4-.5.2-1.2-.8-.5-.1.1-.7.7-.7-.1-.6-1-.8.2-.1.2v1l-.6.4-1.1-.2-.4.7.1.1.6.8-.1.7-.9.6.2.9h.1l1 .1.4.6-.2 1.1.7.5.1-.1.8-.6.6.1.6.9.9-.2V14l.1-1 .5-.5 1.1.3.5-.8-.1-.1-.6-.8zm-1.4.2c-.2.4-.6.7-1 .8-.5.1-1 0-1.4-.2-.8-.6-1.1-1.7-.6-2.5.3-.4.6-.7 1.1-.9.5-.1.9 0 1.3.3.9.5 1.1 1.6.6 2.5z"/>
    </g>
</symbol>
<symbol viewBox="0 0 24 24" id="trigger">
	<rect x="4" y="4" width="16" height="16" rx="2.87" ry="2.87" fill="#6bb7e4"/>
    <path style="fill: #fff" d="M12.9 5.2L12 9.6a.2.2 0 0 0 .3.3H17a.5.5 0 0 1 .3.7L12.2 19a.4.4 0 0 1-.8-.2l.9-5.2c0-.2-.1-.1-.3-.1H7.1c-.4 0-.6-.5-.4-.8L12.1 5a.4.4 0 0 1 .8.2z" />
</symbol>
<symbol viewBox="0 0 24 24" id="process">
	<rect x="4" y="4" width="16" height="16" rx="2.87" ry="2.87" fill="#56aadf"/>
    <path style="fill: #fff" d="M9 11.1l2.6-3.2c.2-.2.6-.2.8 0l2.6 3.2c0 .1.2.2.3.2h2.9c.3 0 .5-.2.5-.5V6.7c0-.8-.6-1.4-1.4-1.4H6.7c-.8 0-1.4.6-1.4 1.4v4.1c0 .3.2.5.5.5h2.8c.2 0 .3-.1.4-.2zm6 1.8l-2.6 3.2c-.2.2-.6.2-.8 0L9 12.9c-.1-.1-.2-.2-.4-.2H5.8c-.3 0-.5.2-.5.5v4.1c0 .8.6 1.4 1.4 1.4h10.6c.8 0 1.4-.6 1.4-1.4v-4.1c0-.3-.2-.5-.5-.5h-2.9c-.1 0-.3.1-.3.2z" />
</symbol>
<symbol viewBox="0 0 24 24" id="modifyCharacteristic">
	<rect x="4" y="4" width="16" height="16" rx="2.87" ry="2.87" fill="#ce7e8f"/>
    <path style="fill: #fff" d="M10.6 14.65c0-.2-.15-.35-.35-.35H6.8c-.2 0-.35.15-.35.35v2.55c0 .2.15 .35.35 .35h3.45c.2 0 .35-.15.35-.35v-2.55zm-2.75-3.55H6.75c-.25 0-.35.2-.2.3l1.85 1.9c.05.1 .2.1 .3 0l1.85-1.9c.15-.15 0-.3-.2-.3H9.25c0-1.2 1.15-2.35 2.3-2.35V7.4c-2.1 0-3.7 1.6-3.7 3.7zm7.8-.4c-.1-.1-.25-.1-.35 0L13.5 12.6c-.15.15-.05.3 .2.3h1.1c0 1.4-.95 2.35-2.35 2.35v1.35c2.1 0 3.75-1.6 3.75-3.7h1.1c.25 0 .35-.2.2-.3l-1.85-1.9zm1.9-3.9c0-.2-.15-.35-.35-.35h-3.45c-.2 0-.35.15-.35.35v2.55c0 .2.15 .35.35 .35h3.45c.2 0 .35-.15.35-.35V6.8z"></path>
</symbol>
<symbol viewBox="0 0 24 24" id="fromSipTrunk">
	<rect x="4" y="4" width="16" height="16" rx="2.87" ry="2.87" fill="#069abc"/>
    <path style="fill: #fff" d="M15.35 15.25H10.9c-.15 0-.3-.15-.3-.3v-.55c0-.15.15-.25.3-.25h4.4c.15 0 .3.1 .3.25V14.95c0 .15-.1.3-.25.3zm-6.1 0H8.7c-.15 0-.3-.15-.3-.3v-.55c0-.15.1-.25.25-.25h.6c.1 0 .25.1 .25.25V14.95c0 .15-.1.3-.25.3zm-.3-3.5c.8-1.4 2.75-2 4-1.4l.35.15c.15.05 .25-.05.2-.2l-.3-1.1c-.05-.15 0-.25.1-.3l.45-.15c.05-.05.2 0 .25.1v.05l.8 2.7c.05.1 0 .25-.15.3l-2.65 1c-.05.05-.2 0-.25-.05v-.05l-.1-.45c-.05-.1 0-.25.1-.25l1.1-.45c.1 0 .1-.1.1-.2 0-.05-.05-.05-.05-.1l-.25-.05c-.95-.5-2.5 0-3.1 1-.05.1-.25.1-.4.05l-.2-.2c-.1-.05-.1-.25 0-.4z"></path>
</symbol>
<symbol viewBox="0 0 24 24" id="requestSkills">
	<rect x="4" y="4" width="16" height="16" rx="2.87" ry="2.87" fill="#47d147"/>
    <path style="fill: #fff" d="M12.325 9.7c.15-.15.15-.35 0-.5L9.675 6.55c-.1-.15-.35-.15-.45 0L6.575 9.2c-.15.15-.15.35 0 .5l.45.5c.15.1 .35.1 .5 0l.85-.85c.1-.15.35-.05.35 .15v4.9c0 .2.2 .35.35 .35h.7c.2 0 .35-.2.35-.35V9.5c0-.2.25-.3.4-.15l.85.85c.1.1 .3.1 .45 0l.5-.5zm5.05 4.6-.45-.45c-.15-.15-.35-.15-.5 0l-.85.85c-.1.1-.35 0-.35-.2V9.6c0-.2-.2-.35-.35-.35h-.7c-.2 0-.35.15-.35.35v4.85c0 .25-.25.3-.4.2l-.85-.85c-.1-.15-.3-.15-.45 0l-.5.5c-.15.15-.15.35 0 .5l2.65 2.65c.15.15 .35.15 .5 0l2.65-2.65c.1-.15.1-.4-.05-.5zM9.675 16.6h-.45c-.25 0-.5-.2-.5-.45v-.45c0-.25.25-.45.5-.45h.45c.25 0 .45.2 .45.45v.45c0 .25-.2.45-.45.45zM14.725 8.75h-.45c-.25 0-.45-.2-.45-.45v-.45c0-.25.2-.45.45-.45h.45c.25 0 .5.2 .5.45v.45c0 .25-.25.45-.5.45z"></path>
</symbol>
</svg>