<?xml version="1.0" encoding="UTF-8"?>
<svg width="18px" height="18px" viewBox="0 0 18 18" version="1.1" xmlns="http://www.w3.org/2000/svg" xmlns:xlink="http://www.w3.org/1999/xlink">
    <!-- Generator: Sketch 61.1 (89650) - https://sketch.com -->
    <title>Icon/Chevron/Up Copy</title>
    <desc>Created with Sketch.</desc>
    <defs>
        <path d="M10.3297281,3.17027192 C10.659233,3.49977679 10.659233,4.03400974 10.3297281,4.36351461 L7.9426457,6.7496457 L10.3297281,9.13648539 C10.659233,9.46599026 10.659233,10.0002232 10.3297281,10.3297281 C10.0002232,10.659233 9.46599026,10.659233 9.13648539,10.3297281 L6.7496457,7.9426457 L4.36351461,10.3297281 C4.03400974,10.659233 3.49977679,10.659233 3.17027192,10.3297281 C2.84076705,10.0002232 2.84076705,9.46599026 3.17027192,9.13648539 L5.5556457,6.7496457 L3.17027192,4.36351461 C2.84076705,4.03400974 2.84076705,3.49977679 3.17027192,3.17027192 C3.49977679,2.84076705 4.03400974,2.84076705 4.36351461,3.17027192 L6.7496457,5.5556457 L9.13648539,3.17027192 C9.46599026,2.84076705 10.0002232,2.84076705 10.3297281,3.17027192 Z" id="path-1"></path>
    </defs>
    <g id="Symbols" stroke="none" stroke-width="1" fill="none" fill-rule="evenodd">
        <g id="Instances-Navigator/Classification" transform="translate(-8.000000, -6.000000)">
            <g id="Icon/Circular" transform="translate(8.000000, 6.000000)">
                <circle id="Oval" fill="#FFFFFF" fill-rule="evenodd" cx="9" cy="9" r="9"></circle>
                <g id="Icon/Close" transform="translate(2.250000, 2.250000)">
                    <mask id="mask-2" fill="white">
                        <use xlink:href="#path-1"></use>
                    </mask>
                    <path stroke="#979797" stroke-width="1" d="M9.97617469,3.52382531 C9.84193196,3.38958259 9.6242815,3.38958259 9.48993016,3.5239339 L6.74959323,6.26258782 L6.39614843,5.9092552 L4.00996122,3.52382531 C3.8757185,3.38958259 3.65806804,3.38958259 3.52382531,3.52382531 C3.38958259,3.65806804 3.38958259,3.8757185 3.52388142,4.01001734 L6.26258782,6.74959323 L5.90930768,7.10309047 L3.52382531,9.49003878 C3.38958259,9.6242815 3.38958259,9.84193196 3.52382531,9.97617469 C3.65806804,10.1104174 3.8757185,10.1104174 4.00989077,9.97624516 L6.74959321,7.23545047 L7.10321707,7.58911029 L9.49003878,9.97617469 C9.6242815,10.1104174 9.84193196,10.1104174 9.97617469,9.97617469 C10.1104174,9.84193196 10.1104174,9.6242815 9.97619266,9.49005675 L7.23545047,6.74959321 L7.58916278,6.39602186 L9.97617469,4.00996122 C10.1104174,3.8757185 10.1104174,3.65806804 9.97617469,3.52382531 Z"></path>
                    <g id="z_colours/grey/dark" mask="url(#mask-2)" fill="#5C6770" fill-rule="evenodd" stroke="#5C6770" stroke-width="1">
                        <rect id="Rectangle" x="0.5" y="0.5" width="12.5" height="12.5"></rect>
                    </g>
                </g>
            </g>
        </g>
    </g>
</svg>