<svg xmlns="http://www.w3.org/2000/svg" xmlns:xlink="http://www.w3.org/1999/xlink" width="18" height="18" viewBox="0 0 18 18">
    <defs>
        <path id="prefix__a" d="M2 10.75c.828 0 1.5.672 1.5 1.5s-.672 1.5-1.5 1.5-1.5-.672-1.5-1.5.672-1.5 1.5-1.5zM2 .25c.828 0 1.5.672 1.5 1.5 0 7.137 0 7.482-1.293 7.5h-.414C.61 9.233.509 8.942.5 3.421L.5 1.75C.5.922 1.172.25 2 .25z"/>
    </defs>
    <g fill="none" fill-rule="evenodd" transform="translate(7 2)">
        <mask id="prefix__b" fill="#fff">
            <use xlink:href="#prefix__a"/>
        </mask>
        <use fill="#D8D8D8" xlink:href="#prefix__a"/>
        <g fill="#5C6770" stroke="#5C6770" mask="url(#prefix__b)">
            <path d="M0.5 0.5H17.5V17.5H0.5z" transform="translate(-11 -2)"/>
        </g>
    </g>
</svg>