<?xml version="1.0" encoding="UTF-8"?>
<svg width="24px" height="24px" viewBox="0 0 24 24" version="1.1" xmlns="http://www.w3.org/2000/svg" xmlns:xlink="http://www.w3.org/1999/xlink">
    <!-- Generator: Sketch 54.1 (76490) - https://sketchapp.com -->
    <title>Group</title>
    <desc>Created with Sketch.</desc>
    <defs>
        <path d="M6.25,4.5 L7.25,4.5 C7.80228475,4.5 8.25,4.94771525 8.25,5.5 L8.25,12.5 C8.25,13.0522847 7.80228475,13.5 7.25,13.5 L6.25,13.5 C5.69771525,13.5 5.25,13.0522847 5.25,12.5 L5.25,5.5 C5.25,4.94771525 5.69771525,4.5 6.25,4.5 Z M10.75,4.5 L11.75,4.5 C12.3022847,4.5 12.75,4.94771525 12.75,5.5 L12.75,12.5 C12.75,13.0522847 12.3022847,13.5 11.75,13.5 L10.75,13.5 C10.1977153,13.5 9.75,13.0522847 9.75,12.5 L9.75,5.5 C9.75,4.94771525 10.1977153,4.5 10.75,4.5 Z" id="path-1"></path>
    </defs>
    <g id="Symbols" stroke="none" stroke-width="1" fill="none" fill-rule="evenodd">
        <g id="Marker/Timeline/Recording-Paused" transform="translate(0.000000, -4.000000)">
            <g id="Group" transform="translate(0.000000, 4.000000)">
                <circle id="Interior-Circle" fill="#F7F7F7" cx="12" cy="12" r="10"></circle>
                <path d="M12,24 C5.372583,24 0,18.627417 0,12 C0,5.372583 5.372583,0 12,0 C18.627417,0 24,5.372583 24,12 C24,18.627417 18.627417,24 12,24 Z M12,22 C17.5228475,22 22,17.5228475 22,12 C22,6.4771525 17.5228475,2 12,2 C6.4771525,2 2,6.4771525 2,12 C2,17.5228475 6.4771525,22 12,22 Z" id="Outline-Circle" fill="#B4458D"></path>
                <g id="Icon/Pause" transform="translate(3.000000, 3.000000)">
                    <mask id="mask-2" fill="white">
                        <use xlink:href="#path-1"></use>
                    </mask>
                    <path stroke="#979797" stroke-width="1" d="M6.25,5 C5.97385763,5 5.75,5.22385763 5.75,5.5 L5.75,12.5 C5.75,12.7761424 5.97385763,13 6.25,13 L7.25,13 C7.52614237,13 7.75,12.7761424 7.75,12.5 L7.75,5.5 C7.75,5.22385763 7.52614237,5 7.25,5 L6.25,5 Z M10.75,5 C10.4738576,5 10.25,5.22385763 10.25,5.5 L10.25,12.5 C10.25,12.7761424 10.4738576,13 10.75,13 L11.75,13 C12.0261424,13 12.25,12.7761424 12.25,12.5 L12.25,5.5 C12.25,5.22385763 12.0261424,5 11.75,5 L10.75,5 Z"></path>
                    <g id="z_colours/black" mask="url(#mask-2)" fill="#000000" fill-rule="evenodd">
                        <rect id="Rectangle" x="0" y="0" width="18" height="18"></rect>
                    </g>
                </g>
            </g>
        </g>
    </g>
</svg>