<?xml version="1.0" encoding="UTF-8"?>
<svg width="24px" height="24px" viewBox="0 0 24 24" version="1.1" xmlns="http://www.w3.org/2000/svg" xmlns:xlink="http://www.w3.org/1999/xlink">
    <!-- Generator: Sketch 54.1 (76490) - https://sketchapp.com -->
    <title>Group</title>
    <desc>Created with Sketch.</desc>
    <defs>
        <path id="a" d="M6 6a1 1 0 0 1 1 1v10a1 1 0 0 1-2 0V7a1 1 0 0 1 1-1zm12 .618a1 1 0 0 1 1 1v8.764a1 1 0 0 1-1.447.894l-8.764-4.382a1 1 0 0 1 0-1.788l8.764-4.382A1 1 0 0 1 18 6.618z"/>
        <path d="M6.25,4.5 L7.25,4.5 C7.80228475,4.5 8.25,4.94771525 8.25,5.5 L8.25,12.5 C8.25,13.0522847 7.80228475,13.5 7.25,13.5 L6.25,13.5 C5.69771525,13.5 5.25,13.0522847 5.25,12.5 L5.25,5.5 C5.25,4.94771525 5.69771525,4.5 6.25,4.5 Z M10.75,4.5 L11.75,4.5 C12.3022847,4.5 12.75,4.94771525 12.75,5.5 L12.75,12.5 C12.75,13.0522847 12.3022847,13.5 11.75,13.5 L10.75,13.5 C10.1977153,13.5 9.75,13.0522847 9.75,12.5 L9.75,5.5 C9.75,4.94771525 10.1977153,4.5 10.75,4.5 Z" id="path-1"></path>
    </defs>
    <g id="Symbols" stroke="none" stroke-width="1" fill="none" fill-rule="evenodd">
        <g id="Marker/Timeline/Recording-Paused" transform="translate(0.000000, -4.000000)">
            <g id="Group" transform="translate(0.000000, 4.000000)">
                <circle id="Interior-Circle" fill="#F7F7F7" cx="12" cy="12" r="10"></circle>
                <path d="M12,24 C5.372583,24 0,18.627417 0,12 C0,5.372583 5.372583,0 12,0 C18.627417,0 24,5.372583 24,12 C24,18.627417 18.627417,24 12,24 Z M12,22 C17.5228475,22 22,17.5228475 22,12 C22,6.4771525 17.5228475,2 12,2 C6.4771525,2 2,6.4771525 2,12 C2,17.5228475 6.4771525,22 12,22 Z" id="Outline-Circle" fill="#B4458D"></path>
                <g id="playback" fill="none" fill-rule="evenodd" transform="rotate(180) translate(-23,-23) scale(0.9)">
                    <mask id="b" fill="#fff">
                        <use xlink:href="#a"/>
                    </mask>
                    <path stroke="#979797" d="M6 6.5a.5.5 0 0 0-.5.5v10a.5.5 0 1 0 1 0V7a.5.5 0 0 0-.5-.5zm12 .618a.5.5 0 0 0-.224.053l-8.764 4.382a.5.5 0 0 0 0 .894l8.764 4.382a.5.5 0 0 0 .724-.447V7.618a.5.5 0 0 0-.5-.5z"/>
                    <g fill="#000" mask="url(#b)">
                        <path d="M0 0h24v24H0z"/>
                    </g>
                </g>
            </g>
        </g>
    </g>
</svg>