<svg xmlns="http://www.w3.org/2000/svg" xmlns:xlink="http://www.w3.org/1999/xlink" width="24" height="24" viewBox="0 0 24 24">
    <defs>
        <path id="a" d="M6 6a1 1 0 0 1 1 1v10a1 1 0 0 1-2 0V7a1 1 0 0 1 1-1zm12 .618a1 1 0 0 1 1 1v8.764a1 1 0 0 1-1.447.894l-8.764-4.382a1 1 0 0 1 0-1.788l8.764-4.382A1 1 0 0 1 18 6.618z"/>
    </defs>
    <g fill="none" fill-rule="evenodd">
        <mask id="b" fill="#fff">
            <use xlink:href="#a"/>
        </mask>
        <path stroke="#979797" d="M6 6.5a.5.5 0 0 0-.5.5v10a.5.5 0 1 0 1 0V7a.5.5 0 0 0-.5-.5zm12 .618a.5.5 0 0 0-.224.053l-8.764 4.382a.5.5 0 0 0 0 .894l8.764 4.382a.5.5 0 0 0 .724-.447V7.618a.5.5 0 0 0-.5-.5z"/>
        <g fill="#000" mask="url(#b)">
            <path d="M0 0h24v24H0z"/>
        </g>
    </g>
</svg>
