<?xml version="1.0" encoding="UTF-8"?>
<svg width="20px" height="20px" viewBox="0 2 20 20" version="1.1" xmlns="http://www.w3.org/2000/svg" xmlns:xlink="http://www.w3.org/1999/xlink">
    <g transform="rotate(180) translate(-20,-24)">
    <path fill="#000" d="M15.742,13.738 C16.034,14.03 16.531,13.791 16.537,13.397 L16.63,7.075
    C16.629,6.888 16.703,6.71 16.835,6.578 C16.966,6.447 17.145,6.373 17.331,6.373 L18.781,6.352
    C18.964,6.344 19.142,6.413 19.271,6.542 C19.401,6.672 19.47,6.85 19.462,7.033 L19.259,18.591
    C19.26,18.777 19.186,18.956 19.054,19.088 C18.923,19.219 18.744,19.293 18.558,19.293
    L7.034,19.46 C6.851,19.469 6.673,19.4 6.544,19.27 C6.414,19.14 6.345,18.962 6.353,18.779
    L6.373,17.396 C6.373,17.21 6.446,17.031 6.578,16.9 C6.71,16.768 6.888,16.694 7.074,16.695
    L13.396,16.603 C13.825,16.563 14.062,16.067 13.77,15.775 L4.413,6.418 C4.153,6.158 4.127,5.73
    4.395,5.463 L5.396,4.461 C5.664,4.194 6.126,4.121 6.385,4.381 L15.742,13.738 z"
    transform="rotate(-135) translate(-27.5, -13.5)"
    />
    </g>
</svg>
