<?xml version="1.0" encoding="UTF-8"?>
<svg width="24px" height="24px" viewBox="0 -1 24 24" version="1.1" xmlns="http://www.w3.org/2000/svg" xmlns:xlink="http://www.w3.org/1999/xlink">
  <g id="Icon/Contact">
    <path d="M19.2,6 L4.8,6 C3.81,6 3,6.79 3,7.756 L3,16.244 C3,17.21 3.81,18 4.8,18 L19.2,18 C20.19,18 21,17.21 21,16.244 L21,7.756 C21,6.79 20.19,6 19.2,6 z M11.58,15.951 L6.42,15.951 C5.85,15.951 5.4,15.337 5.4,14.751 C5.43,13.873 6.36,13.346 7.35,12.907 C8.04,12.615 8.13,12.351 8.13,12.059 C8.13,11.766 7.95,11.502 7.71,11.298 C7.32,10.946 7.08,10.42 7.08,9.834 C7.08,8.722 7.77,7.785 8.97,7.785 C10.17,7.785 10.86,8.722 10.86,9.834 C10.86,10.42 10.65,10.946 10.23,11.298 C9.99,11.502 9.81,11.766 9.81,12.059 C9.81,12.351 9.9,12.615 10.59,12.878 C11.58,13.288 12.51,13.873 12.54,14.751 C12.6,15.337 12.15,15.951 11.58,15.951 L11.58,15.951 z M18.6,13.902 C18.6,14.224 18.33,14.488 18,14.488 L15.3,14.488 C14.97,14.488 14.7,14.224 14.7,13.902 L14.7,13.024 C14.7,12.702 14.97,12.439 15.3,12.439 L18,12.439 C18.33,12.439 18.6,12.702 18.6,13.024 L18.6,13.902 z M18.6,10.683 C18.6,11.005 18.33,11.268 18,11.268 L13.5,11.268 C13.17,11.268 12.9,11.005 12.9,10.683 L12.9,9.805 C12.9,9.483 13.17,9.22 13.5,9.22 L18,9.22 C18.33,9.22 18.6,9.483 18.6,9.805 L18.6,10.683 z" fill="#5C6770" id="path-1"/>
  </g>
</svg>
