<svg xmlns="http://www.w3.org/2000/svg" xmlns:xlink="http://www.w3.org/1999/xlink" width="24" height="24" viewBox="0 0 24 24" fill="#49535C">
    <path fill="fill" id="a" d="M21 18.36v.84c0 .99-.81 1.8-1.8 1.8H4.8c-.99 0-1.8-.81-1.8-1.8v-.84c0-2.19 2.55-3.51 4.95-4.56.09-.03.15-.06.24-.12.18-.09.39-.09.57.03.96.63 2.07.99 3.24.99 1.17 0 2.28-.36 3.24-.96.18-.12.39-.12.57-.03.09.03.15.06.24.12 2.4 1.02 4.95 2.34 4.95 4.53zm-9-5.46c-2.469 0-4.47-2.216-4.47-4.95S9.531 3 12 3s4.47 2.216 4.47 4.95S14.469 12.9 12 12.9z"/>
</svg>
