<?xml version="1.0" encoding="UTF-8"?>
<svg width="24px" height="24px" viewBox="0 0 24 24" version="1.1" xmlns="http://www.w3.org/2000/svg" xmlns:xlink="http://www.w3.org/1999/xlink">
    <!-- Generator: Sketch 54.1 (76490) - https://sketchapp.com -->
    <title>Group</title>
    <desc>Created with Sketch.</desc>
    <defs>
        <path d="M7.32019051,10.3272803 C7.21173854,10.4339589 7.06320717,10.5 6.9,10.5 L2.1,10.5 C1.77,10.5 1.5,10.23 1.5,9.9 L1.5,9.62 C1.5,8.89 2.35,8.45 3.15,8.1 C3.18,8.09 3.2,8.08 3.23,8.06 C3.29,8.03 3.36,8.03 3.42,8.07 C3.74,8.28 4.11,8.4 4.5,8.4 C4.89,8.4 5.26,8.28 5.58,8.08 C5.64,8.04 5.71,8.04 5.77,8.07 C5.8,8.08 5.82,8.09 5.85,8.11 C5.9068931,8.13417957 5.96403908,8.15886489 6.02111422,8.1841243 C6.13559153,9.02591709 6.69960307,9.77844448 7.32019051,10.3272803 Z M10.6798095,10.3272803 C11.3024932,9.77659058 11.8682181,9.02083089 11.9800304,8.17559084 C12.036725,8.14989778 12.0934872,8.12472433 12.15,8.1 C12.18,8.09 12.2,8.08 12.23,8.06 C12.29,8.03 12.36,8.03 12.42,8.07 C12.74,8.28 13.11,8.4 13.5,8.4 C13.89,8.4 14.26,8.28 14.58,8.08 C14.64,8.04 14.71,8.04 14.77,8.07 C14.8,8.08 14.82,8.09 14.85,8.11 C15.65,8.45 16.5,8.89 16.5,9.62 L16.5,9.9 C16.5,10.23 16.23,10.5 15.9,10.5 L11.1,10.5 C10.9367928,10.5 10.7882615,10.4339589 10.6798095,10.3272803 Z M4.5,7.8 C3.67709572,7.8 3.01,7.06126984 3.01,6.15 C3.01,5.23873016 3.67709572,4.5 4.5,4.5 C5.32290428,4.5 5.99,5.23873016 5.99,6.15 C5.99,7.06126984 5.32290428,7.8 4.5,7.8 Z M13.5,7.8 C12.6770957,7.8 12.01,7.06126984 12.01,6.15 C12.01,5.23873016 12.6770957,4.5 13.5,4.5 C14.3229043,4.5 14.99,5.23873016 14.99,6.15 C14.99,7.06126984 14.3229043,7.8 13.5,7.8 Z M13.5,12.93 L13.5,13.35 C13.5,13.845 13.095,14.25 12.6,14.25 L5.4,14.25 C4.905,14.25 4.5,13.845 4.5,13.35 L4.5,12.93 C4.5,11.835 5.775,11.175 6.975,10.65 C7.02,10.635 7.05,10.62 7.095,10.59 C7.185,10.545 7.29,10.545 7.38,10.605 C7.86,10.92 8.415,11.1 9,11.1 C9.585,11.1 10.14,10.92 10.62,10.62 C10.71,10.56 10.815,10.56 10.905,10.605 C10.95,10.62 10.98,10.635 11.025,10.665 C12.225,11.175 13.5,11.835 13.5,12.93 Z M9,10.2 C7.76564358,10.2 6.765,9.09190476 6.765,7.725 C6.765,6.35809524 7.76564358,5.25 9,5.25 C10.2343564,5.25 11.235,6.35809524 11.235,7.725 C11.235,9.09190476 10.2343564,10.2 9,10.2 Z" id="path-1"></path>
    </defs>
    <g id="Symbols" stroke="none" stroke-width="1" fill="none" fill-rule="evenodd">
        <g id="Marker/Transcription/Hold">
            <g id="Group">
                <path d="M12,24 C5.372583,24 0,18.627417 0,12 C0,5.372583 5.372583,0 12,0 C18.627417,0 24,5.372583 24,12 C24,18.627417 18.627417,24 12,24 Z M12,22 C17.5228475,22 22,17.5228475 22,12 C22,6.4771525 17.5228475,2 12,2 C6.4771525,2 2,6.4771525 2,12 C2,17.5228475 6.4771525,22 12,22 Z" id="Combined-Shape" fill="#ADB3B7"></path>
                <circle id="Oval" fill="#F7F7F7" cx="12" cy="12" r="10"></circle>
                <g id="Icon/Users" transform="translate(3.000000, 3.000000)">
                    <mask id="mask-2" fill="white">
                        <use xlink:href="#path-1"></use>
                    </mask>
                    <use id="Combined-Shape" fill="#F5A623" fill-rule="evenodd" xlink:href="#path-1"></use>
                    <g id="z_colours/black" mask="url(#mask-2)" fill="#000000" fill-rule="evenodd">
                        <g transform="translate(0.000000, 0.750000)" id="Rectangle">
                            <rect x="0" y="0" width="18" height="18"></rect>
                        </g>
                    </g>
                </g>
            </g>
        </g>
    </g>
</svg>