<svg xmlns="http://www.w3.org/2000/svg" xmlns:xlink="http://www.w3.org/1999/xlink" width="24" height="24" viewBox="0 0 24 24">
    <path fill="#fff" id="a" d="M6.264 14.562l3.08 3.08a.335.335 0 0 0 .485 0l7.685-7.719a.335.335 0 0 0 0-.485l-3.047-3.046a.335.335 0 0 0-.484 0l-7.72 7.72c-.138.138-.138.346 0 .45zm9.207-9.589a.335.335 0 0 0 0 .485l3.046 3.046a.335.335 0 0 0 .485 0l.865-.866c.554-.519.554-1.35 0-1.903L18.24 4.108a1.38 1.38 0 0 0-1.973 0l-.796.865zM3.702 19.685a.503.503 0 0 0 .588.588l3.774-.9a.67.67 0 0 0 .311-.173l.07-.07c.069-.068.103-.31-.035-.45l-3.116-3.115c-.138-.138-.38-.103-.45-.034l-.069.069a.708.708 0 0 0-.173.312l-.9 3.773z"/>
</svg>
