<svg xmlns="http://www.w3.org/2000/svg" xmlns:xlink="http://www.w3.org/1999/xlink" width="24" height="24" viewBox="0 0 24 24">
    <defs>
        <path id="a" d="M8.447 6.724l8.764 4.382a1 1 0 0 1 0 1.788l-8.764 4.382A1 1 0 0 1 7 16.382V7.618a1 1 0 0 1 1.447-.894z"/>
    </defs>
    <g fill="none" fill-rule="evenodd">
        <mask id="b" fill="#fff">
            <use xlink:href="#a"/>
        </mask>
        <path stroke="#979797" d="M8.224 7.17a.5.5 0 0 0-.724.448v8.764a.5.5 0 0 0 .724.447l8.764-4.382a.5.5 0 0 0 0-.894L8.224 7.17z"/>
        <g fill="#000" mask="url(#b)">
            <path d="M0 0h24v24H0z"/>
        </g>
    </g>
</svg>
