<?xml version="1.0" encoding="UTF-8"?>
<svg version="1.1" xmlns="http://www.w3.org/2000/svg" xmlns:xlink="http://www.w3.org/1999/xlink" x="0" y="0" width="24" height="24" viewBox="0, 0, 24, 24">
  <g id="Symbols">
      <g id="Group" transform="translate(0.000000, 0.000000)">
          <path d="M12,24 C5.372583,24 0,18.627417 0,12 C0,5.372583 5.372583,0 12,0 C18.627417,0 24,5.372583 24,12 C24,18.627417 18.627417,24 12,24 Z M12,22 C17.5228475,22 22,17.5228475 22,12 C22,6.4771525 17.5228475,2 12,2 C6.4771525,2 2,6.4771525 2,12 C2,17.5228475 6.4771525,22 12,22 Z" id="Outline-Circle" fill="#ADB3B7" />
          <circle id="Interior-Circle" fill="#F7F7F7" cx="12" cy="12" r="10" />
      </g>
    <path d="M16.125,4.5 C16.332,4.5 16.5,4.668 16.5,4.875 C16.5,5.056 16.371,5.207 16.201,5.242 L16.125,5.25 L15,5.25 C16,7.776 16,9.461 15,10.303 C14.418,10.793 13.609,11.093 12.751,11.203 L12.751,12.797 C13.609,12.907 14.418,13.207 15,13.697 C16,14.539 16,16.224 15,18.75 L16.125,18.75 C16.332,18.75 16.5,18.918 16.5,19.125 C16.5,19.306 16.371,19.457 16.201,19.492 L16.125,19.5 L7.875,19.5 C7.668,19.5 7.5,19.332 7.5,19.125 C7.5,18.944 7.629,18.793 7.799,18.758 L7.875,18.75 L9,18.75 C8,16.224 8,14.539 9,13.697 C9.582,13.207 10.391,12.907 11.25,12.797 L11.25,11.203 C10.391,11.093 9.582,10.793 9,10.303 C8,9.461 8,7.776 9,5.25 L7.875,5.25 C7.668,5.25 7.5,5.082 7.5,4.875 C7.5,4.694 7.629,4.543 7.799,4.508 L7.875,4.5 L16.125,4.5 z M11.25,13.5 C9.75,13.5 9,14.25 9,15.75 C9,15.75 9,17.268 9.768,17.268 C9.768,17.268 10.433,16.81 11.25,16.601 L11.25,13.5 z M12.75,13.5 L12.751,16.601 C13.579,16.809 14.263,17.268 14.263,17.268 C15,17.268 15,15.75 15,15.75 C15,14.25 14.25,13.5 12.75,13.5 L12.75,13.5 z M14.25,5.25 L9.75,5.25 L9,7.5 C10,8 11,8.25 12,8.25 C13,8.25 14,8 15,7.5 L15,7.5 L14.25,5.25 z" fill="#000000" id="path-1"/>
  </g>
</svg>
