<?xml version="1.0" encoding="UTF-8"?>
<!DOCTYPE svg PUBLIC "-//W3C//DTD SVG 1.1//EN" "http://www.w3.org/Graphics/SVG/1.1/DTD/svg11.dtd">
<svg version="1.1" xmlns="http://www.w3.org/2000/svg" xmlns:xlink="http://www.w3.org/1999/xlink" x="0" y="0" width="64" height="78" viewBox="0, 0, 64, 78">
  <g id="Layer_1" transform="translate(-478, -222)">
    <path d="M487.029,243.489 C487.029,231.621 496.65,222 508.518,222 L511.482,222 C523.35,222 532.971,231.621 532.971,243.489 L532.97,259 L534.001,259 C538.677,259.178 541.551,262.545 542,267 L542,292 C542,296.418 538.418,300 534,300 L486,300 C481.582,300 478,296.418 478,292 L478,267 C478.178,262.324 481.544,259.449 485.999,259 L487.029,259 L487.029,243.489 z M510.956,232.651 L509.044,232.651 C501.387,232.651 497.68,236.358 497.68,244.014 L497.68,259 L522.319,259 L522.319,244.014 C522.32,236.358 518.613,232.651 510.956,232.651 z" fill="#FFFFFF"/>
  </g>
</svg>
