<svg xmlns="http://www.w3.org/2000/svg" xmlns:xlink="http://www.w3.org/1999/xlink" width="14" height="15" viewBox="0 0 18 18">
    <defs>
        <path id="prefix__a" d="M9.093.761c.553 0 1 .448 1 1v11.5c0 .292-.125.555-.325.738-.181.194-.44.315-.728.315H4.911c-.552 0-1-.447-1-1v-.25c0-.552.448-1 1-1h2.931l.001-10.303c0-.552.448-1 1-1h.25z"/>
    </defs>
    <g fill="none" fill-rule="evenodd" transform="translate(9,-2) rotate(45)">
        <mask id="prefix__b" fill="#fff">
            <use xlink:href="#prefix__a"/>
        </mask>
        <path stroke="#979797" d="M8.49 1.407c-.09.091-.147.216-.147.354v10.803H4.91c-.138 0-.263.056-.353.147-.114.114-.147.288-.147.603 0 .138.056.263.147.354.09.09.215.146.353.146H9.04c.143 0 .273-.06.363-.157l.013-.014.015-.013c.1-.091.162-.223.162-.369v-11.5c0-.132-.055-.252-.16-.337-.139-.11-.341-.163-.943-.017z"/>
        <g fill="#FFF" mask="url(#prefix__b)">
            <path d="M0 0H18V18H0z" transform="translate(9,-2) rotate(45)"/>
        </g>
    </g>
</svg>