<?xml version="1.0" encoding="UTF-8"?>
<svg width="14px" height="14px" viewBox="0 0 14 14" version="1.1" xmlns="http://www.w3.org/2000/svg" xmlns:xlink="http://www.w3.org/1999/xlink">
    <!-- Generator: Sketch 54.1 (76490) - https://sketchapp.com -->
    <title>Icon/Urgent</title>
    <desc>Created with Sketch.</desc>
    <defs>
        <path d="M15.75,9.5625 C15.75,8.465625 15.046875,7.509375 14.0625,7.171875 C13.978125,4.44375 11.75625,2.25 9,2.25 C6.24375,2.25 4.021875,4.44375 3.9375,7.171875 C2.953125,7.509375 2.25,8.465625 2.25,9.5625 C2.25,10.74375 3.065625,11.728125 4.134375,12.009375 C4.753125,14.175 6.69375,15.75 9,15.75 C11.30625,15.75 13.246875,14.175 13.865625,12.009375 C14.934375,11.728125 15.75,10.74375 15.75,9.5625 L15.75,9.5625 Z M12.9375,7.03125 L12.909375,7.003125 L13.021875,7.03125 L12.9375,7.03125 Z M9,14.625 C6.834375,14.625 5.0625,12.796875 5.0625,10.575 C5.0625,10.0125 5.175,9.16875 5.4,8.6625 C5.428125,8.578125 5.484375,8.49375 5.5125,8.409375 C6.35625,8.071875 7.0875,7.48125 7.565625,6.721875 C8.55,7.959375 10.096875,8.803125 11.8125,8.803125 C12.403125,8.803125 12.571875,8.83125 12.628125,8.803125 C12.740625,9.16875 12.853125,9.61875 12.88125,10.06875 C12.7125,10.771875 11.615625,11.446875 10.06875,11.53125 C10.0125,11.390625 9.84375,11.25 9.675,11.25 L8.26875,11.25 C8.04375,11.25 7.875,11.475 7.875,11.7 L7.875,12.54375 C7.875,12.76875 8.04375,12.9375 8.26875,12.9375 L9.675,12.9375 C9.871875,12.9375 10.0125,12.853125 10.06875,12.684375 C11.08125,12.65625 11.98125,12.375 12.684375,11.953125 C12.15,13.5 10.715625,14.625 9,14.625 L9,14.625 Z" id="path-1"></path>
    </defs>
    <g id="Symbols" stroke="none" stroke-width="1" fill="none" fill-rule="evenodd">
        <g id="Marker/Timeline/Event" transform="translate(-9.000000, -9.000000)">
            <g id="Group" transform="translate(4.000000, 4.000000)">
                <g id="Icon/Customer-Service" transform="translate(3.000000, 3.000000)">
                    <mask id="mask-2" fill="white">
                        <use xlink:href="#path-1"></use>
                    </mask>
                    <use id="Mask" fill="#FFFFFF" fill-rule="evenodd" xlink:href="#path-1"></use>
                    <g id="z_colours/black" mask="url(#mask-2)" fill="#000000" fill-rule="evenodd">
                        <rect id="Rectangle" x="0" y="0" width="18" height="18"></rect>
                    </g>
                </g>
            </g>
        </g>
    </g>
</svg>