<svg xmlns="http://www.w3.org/2000/svg" xmlns:xlink="http://www.w3.org/1999/xlink" width="24" height="24" viewBox="0 0 24 24" fill="#000">
    <path fill="fill" id="a" d="M20.4 12.33c.03-.63-.42-.81-.6-.81h-6.54c-.57 0-.66.6-.66.66v7.02h7.8v-6.87zm-4.5 5.04c0 .33-.27.6-.6.6h-.6c-.33 0-.6-.27-.6-.6v-.6c0-.33.27-.6.6-.6h.6c.33 0 .6.27.6.6v.6zm0-3.06c0 .33-.27.6-.6.6h-.6c-.33 0-.6-.27-.6-.6v-.6c0-.33.27-.6.6-.6h.6c.33 0 .6.27.6.6v.6zm3 3.06c0 .33-.27.6-.6.6h-.6c-.33 0-.6-.27-.6-.6v-.6c0-.33.27-.6.6-.6h.6c.33 0 .6.27.6.6v.6zm0-3.06c0 .33-.27.6-.6.6h-.6c-.33 0-.6-.27-.6-.6v-.6c0-.33.27-.6.6-.6h.6c.33 0 .6.27.6.6v.6zm-4.5-5.22V5.61c.03-.63-.42-.81-.6-.81H3.66c-.57 0-.66.6-.66.66V19.2h7.8v-8.79s0-.72.66-.72h2.37s.57-.36.57-.6zm-8.1 7.98c0 .33-.27.6-.6.6h-.6c-.33 0-.6-.27-.6-.6v-.6c0-.33.27-.6.6-.6h.6c.33 0 .6.27.6.6v.6zm0-3.09c0 .33-.27.6-.6.6h-.6c-.33 0-.6-.27-.6-.6v-.6c0-.33.27-.6.6-.6h.6c.33 0 .6.27.6.6v.6zm0-3.06c0 .33-.27.6-.6.6h-.6c-.33 0-.6-.27-.6-.6v-.6c0-.33.27-.6.6-.6h.6c.33 0 .6.27.6.6v.6zm0-3.06c0 .33-.27.6-.6.6h-.6c-.33 0-.6-.27-.6-.6v-.6c0-.33.27-.6.6-.6h.6c.33 0 .6.27.6.6v.6zm3.3 9.21c0 .33-.27.6-.6.6h-.6c-.33 0-.6-.27-.6-.6v-.6c0-.33.27-.6.6-.6H9c.33 0 .6.27.6.6v.6zm0-3.09c0 .33-.27.6-.6.6h-.6c-.33 0-.6-.27-.6-.6v-.6c0-.33.27-.6.6-.6H9c.33 0 .6.27.6.6v.6zm0-3.06c0 .33-.27.6-.6.6h-.6c-.33 0-.6-.27-.6-.6v-.6c0-.33.27-.6.6-.6H9c.33 0 .6.27.6.6v.6zm0-3.06c0 .33-.27.6-.6.6h-.6c-.33 0-.6-.27-.6-.6v-.6c0-.33.27-.6.6-.6H9c.33 0 .6.27.6.6v.6zm3.3 0c0 .33-.27.6-.6.6h-.6c-.33 0-.6-.27-.6-.6v-.6c0-.33.27-.6.6-.6h.6c.33 0 .6.27.6.6v.6z"/>
</svg>
