<svg xmlns="http://www.w3.org/2000/svg" width="18" height="18" viewBox="0 0 18 18">
    <g fill="none" fill-rule="evenodd">
        <g fill="#FFF">
            <g>
                <g>
                    <g>
                        <path d="M4.5 7.5C5.328 7.5 6 8.172 6 9s-.672 1.5-1.5 1.5S3 9.828 3 9s.672-1.5 1.5-1.5zm4.5 0c.828 0 1.5.672 1.5 1.5s-.672 1.5-1.5 1.5S7.5 9.828 7.5 9 8.172 7.5 9 7.5zm4.5 0c.828 0 1.5.672 1.5 1.5s-.672 1.5-1.5 1.5S12 9.828 12 9s.672-1.5 1.5-1.5z" transform="translate(-427 -383) translate(224 380) translate(200) translate(3 3) rotate(90 9 9)"/>
                    </g>
                </g>
            </g>
        </g>
    </g>
</svg>
