<?xml version="1.0" encoding="UTF-8"?>
<svg width="24px" height="24px" viewBox="0 0 24 24" version="1.1" xmlns="http://www.w3.org/2000/svg" xmlns:xlink="http://www.w3.org/1999/xlink">
    <!-- Generator: Sketch 54.1 (76490) - https://sketchapp.com -->
    <title>Group</title>
    <desc>Created with Sketch.</desc>
    <defs>
        <path d="M13.8606527,3.313125 C14.1323333,3.313125 14.25,3.49644283 14.25,3.70527096 C14.25,3.91409908 14.25,8.476875 14.25,8.476875 C14.25,9.33235847 13.5285986,9.84375 12.8306075,9.84375 L11.5689252,9.84375 C11.5639968,9.84375 11.5596844,9.84315678 11.5553721,9.84315678 C11.5541399,9.84315678 11.5535239,9.84375 11.5529079,9.84375 C11.5461312,9.84375 11.5393546,9.84256355 11.5325779,9.84256355 C11.5103999,9.84197018 11.4888381,9.84078373 11.4691243,9.83900391 C11.0557508,9.81646004 10.6824209,9.62958256 10.4359986,9.31515377 C10.4353826,9.31456055 10.4353826,9.31456055 10.4347666,9.31456055 L10.3793215,9.24574219 L10.3799377,9.2510815 L9.94931462,8.71358646 L8.605697,7.05126705 C8.59522393,7.03880859 8.58967947,7.02457031 8.58413501,7.01033203 L8.56688544,6.98838139 C8.34572138,6.77540039 8.34572138,6.441394 8.56688544,6.24383789 C8.78743334,6.03145027 9.13427278,6.03145027 9.33941932,6.24383789 L10.1279707,7.15508789 L10.1285869,7.16220703 C10.1359796,7.15983398 10.1433722,7.15864754 10.1495327,7.15508789 L10.1495327,3.22710209 C10.1495327,2.96250729 10.3910266,2.86402592 10.5431924,2.86402592 C10.7021347,2.86402592 10.9380841,2.96547371 10.9380841,3.24430664 L10.9380841,5.743125 C10.9380841,5.82677486 11.0095466,5.895 11.0964104,5.895 C11.1832744,5.895 11.2541207,5.82677486 11.2541207,5.743125 L11.2541207,2.6308741 C11.2541207,2.47721928 11.3797961,2.25 11.6496286,2.25 C11.9188449,2.25 12.0420561,2.47721928 12.0420561,2.6308741 L12.0420561,5.59302982 C12.0420561,5.59302982 12.0420561,5.59362305 12.0420561,5.59362305 C12.0420561,5.67727291 12.1153668,5.74490482 12.2022306,5.74490482 C12.2890944,5.74490482 12.3599409,5.67727291 12.3599409,5.59302982 L12.3599409,2.9346241 C12.3599409,2.7607983 12.4788396,2.55375 12.7548326,2.55375 C13.0314417,2.55375 13.1491083,2.74656002 13.146028,2.93047123 L13.146028,5.743125 C13.146028,5.82677486 13.2211869,5.895 13.3080507,5.895 C13.3955306,5.895 13.465761,5.82677486 13.465761,5.743125 L13.465761,3.69755859 C13.465761,3.49347656 13.5895882,3.313125 13.8606527,3.313125 Z M13.116561,13.0464053 C13.6066366,13.4179302 13.6591447,14.1272049 13.1865718,14.5325047 L12.241426,15.4444293 C12.0313936,15.6470792 11.7513504,15.7652917 11.4538045,15.7484042 C9.21345876,15.6301918 7.11313467,14.6507172 5.62540511,13.2152803 C4.13767555,11.7798434 3.12251891,9.73645671 3,7.5917451 C3,7.32154521 3.1050162,7.03445783 3.31504861,6.83180792 L4.26019445,5.9198833 C4.69776197,5.49769597 5.4328754,5.53147096 5.81793482,6.00432076 L6.69306985,7.05134533 C6.99061577,7.40598268 7.00811847,7.91260747 6.72807526,8.28413231 L5.97545912,9.2804944 C5.87044292,9.41559434 5.88794562,9.60135677 6.01046453,9.71956922 L7.56820489,11.3745435 L9.26596686,12.8606429 C9.38848577,12.9788554 9.58101547,12.9957429 9.72103708,12.8944179 L10.7536964,12.1682557 C11.1387558,11.8980558 11.6638369,11.9149433 12.0313936,12.2020307 L13.116561,13.0464053 Z" id="path-1"></path>
    </defs>
    <g id="Symbols" stroke="none" stroke-width="1" fill="none" fill-rule="evenodd">
        <g id="Marker/Transcription/Hold">
            <g id="Group">
                <path d="M12,24 C5.372583,24 0,18.627417 0,12 C0,5.372583 5.372583,0 12,0 C18.627417,0 24,5.372583 24,12 C24,18.627417 18.627417,24 12,24 Z M12,22 C17.5228475,22 22,17.5228475 22,12 C22,6.4771525 17.5228475,2 12,2 C6.4771525,2 2,6.4771525 2,12 C2,17.5228475 6.4771525,22 12,22 Z" id="Combined-Shape" fill="#ADB3B7"></path>
                <circle id="Oval" fill="#F7F7F7" cx="12" cy="12" r="10"></circle>
                <g id="Icon/Call/Hold" transform="translate(3.000000, 3.000000)">
                    <mask id="mask-2" fill="white">
                        <use xlink:href="#path-1"></use>
                    </mask>
                    <use id="Combined-Shape" fill="#FFFFFF" fill-rule="evenodd" xlink:href="#path-1"></use>
                    <g id="z_colours/black" mask="url(#mask-2)" fill="#000000" fill-rule="evenodd">
                        <rect id="Rectangle" x="0" y="0" width="18" height="18"></rect>
                    </g>
                </g>
            </g>
        </g>
    </g>
</svg>