<?xml version="1.0" encoding="UTF-8"?>
<svg width="24px" height="24px" viewBox="0 0 24 24" version="1.1" xmlns="http://www.w3.org/2000/svg" xmlns:xlink="http://www.w3.org/1999/xlink">
    <!-- Generator: Sketch 54.1 (76490) - https://sketchapp.com -->
    <title>Group</title>
    <desc>Created with Sketch.</desc>
    <defs>
        <path id="a" d="M6 6a1 1 0 0 1 1 1v10a1 1 0 0 1-2 0V7a1 1 0 0 1 1-1zm12 .618a1 1 0 0 1 1 1v8.764a1 1 0 0 1-1.447.894l-8.764-4.382a1 1 0 0 1 0-1.788l8.764-4.382A1 1 0 0 1 18 6.618z"/>
        <path d="M5.07230672,15 C3.75204106,13.4641226 2.25000024,12.7526332 2.25000024,9.0013166 C2.25000024,5.25 3.75301363,4.53563805 5.07376557,3 L7.18837891,4.22037144 L6.1435941,6.56368569 L4.99912072,6.42268946 C4.83572873,6.40282072 4.6818193,6.50431886 4.63926931,6.66111433 C4.43405674,7.41373257 4.33072103,8.20106126 4.33072103,9.00107722 C4.33072103,9.80037503 4.43454303,10.5869856 4.63951245,11.3396038 C4.6818193,11.4956811 4.83572873,11.5974187 4.99839129,11.5775499 L6.14335095,11.4363143 L7.18764948,13.7798679 L5.07230672,15 Z M13.2154633,9.44387245 C13.3863309,9.44387245 13.4622721,9.65558869 13.3483604,9.77107027 L11.5257722,11.6187756 C11.4118604,11.7342572 11.4118604,11.9074796 11.5257722,12.0229612 L11.9434486,12.4463937 C12.0573604,12.5618752 12.228228,12.5618752 12.3421398,12.4463937 L15.6645662,9.05893383 C15.7784779,8.94345224 15.7784779,8.77022987 15.6645662,8.65474828 L12.3421398,5.28653538 C12.228228,5.1710538 12.0573604,5.1710538 11.9434486,5.28653538 L11.5447575,5.69072093 C11.4308457,5.80620252 11.4308457,5.97942489 11.5447575,6.09490648 L13.3673457,7.94261184 C13.4812574,8.07734036 13.4053162,8.2890566 13.2344486,8.2890566 L7.75891733,8.2890566 C7.60703499,8.2890566 7.47413793,8.40453818 7.47413793,8.55851363 L7.47413793,9.13592155 C7.47413793,9.289897 7.58804969,9.44387245 7.73993204,9.44387245 L13.2154633,9.44387245 Z" id="path-1"></path>
    </defs>
    <g id="Symbols" stroke="none" stroke-width="1" fill="none" fill-rule="evenodd">
        <g id="Marker/Timeline/Hold" transform="translate(0.000000, -4.000000)">
            <g id="Group" transform="translate(0.000000, 4.000000)">
                <path d="M12,24 C5.372583,24 0,18.627417 0,12 C0,5.372583 5.372583,0 12,0 C18.627417,0 24,5.372583 24,12 C24,18.627417 18.627417,24 12,24 Z M12,22 C17.5228475,22 22,17.5228475 22,12 C22,6.4771525 17.5228475,2 12,2 C6.4771525,2 2,6.4771525 2,12 C2,17.5228475 6.4771525,22 12,22 Z" id="Outline-Circle" fill="#ADB3B7"></path>
                <circle id="Interior-Circle" fill="#F7F7F7" cx="12" cy="12" r="10"></circle>
            </g>
        </g>
    </g>
    <g fill="none" fill-rule="evenodd" transform="rotate(180) translate(-23,-23) scale(0.9)">
        <mask id="b" fill="#fff">
            <use xlink:href="#a"/>
        </mask>
        <path stroke="#979797" d="M6 6.5a.5.5 0 0 0-.5.5v10a.5.5 0 1 0 1 0V7a.5.5 0 0 0-.5-.5zm12 .618a.5.5 0 0 0-.224.053l-8.764 4.382a.5.5 0 0 0 0 .894l8.764 4.382a.5.5 0 0 0 .724-.447V7.618a.5.5 0 0 0-.5-.5z"/>
        <g fill="#000" mask="url(#b)">
            <path d="M0 0h24v24H0z"/>
        </g>
    </g>
</svg>
