<?xml version="1.0" encoding="UTF-8" standalone="no"?>
<svg
   xmlns:dc="http://purl.org/dc/elements/1.1/"
   xmlns:cc="http://creativecommons.org/ns#"
   xmlns:rdf="http://www.w3.org/1999/02/22-rdf-syntax-ns#"
   xmlns:svg="http://www.w3.org/2000/svg"
   xmlns="http://www.w3.org/2000/svg"
   version="1.1"
   id="svg10"
   xml:space="preserve"
   width="255.73334"
   height="38.426666"
   viewBox="0 0 255.73334 38.426666"><metadata
     id="metadata16"><rdf:RDF><cc:Work
         rdf:about=""><dc:format>image/svg+xml</dc:format><dc:type
           rdf:resource="http://purl.org/dc/dcmitype/StillImage" /><dc:title></dc:title></cc:Work></rdf:RDF></metadata><defs
     id="defs14" /><g
     id="g18"
     transform="matrix(1.3333333,0,0,-1.3333333,0,38.426667)"><g
       id="g20"
       transform="scale(0.1)"><path
         d="m 1731.55,176.973 69.75,-28.004 V 0.00390625 L 1692.65,57.8867 V 192.672 l 108.65,43.961 v -31.348 l -69.75,-28.312"
         style="fill:#adda1f;fill-opacity:1;fill-rule:nonzero;stroke:none"
         id="path22" /><path
         d="M 1918.01,192.672 V 57.875 L 1809.34,-0.00390625 V 148.969 l 69.72,28 -69.72,28.32 v 31.344 l 108.67,-43.961"
         style="fill:#4e5c68;fill-opacity:1;fill-rule:nonzero;stroke:none"
         id="path24" /><path
         d="m 714.98,220.781 c -55.128,0 -100,-46.129 -100,-102.789 0,-56.2576 44.872,-102.0389 100,-102.0389 45.368,0 79.731,23.0274 92.809,61.8633 h -48.246 c -8.883,-14.8437 -25.504,-23.582 -44.895,-23.582 -18.75,0 -35.14,8.1914 -46.187,23.1054 l -2.742,3.711 144.543,60.7422 c -9.942,48.07 -47.024,78.988 -95.282,78.988 m -59.187,-105.609 0.219,5.672 c 1.199,35.726 25.859,61.679 58.636,61.679 17.254,0 32.473,-6.972 42.856,-19.421 l 3.109,-3.801 z m -46.184,61.812 c 7.551,14.778 17.981,27.938 30.481,38.653 h -75.774 v 72.597 h -44.554 v -72.597 h -51.981 v 72.597 H 423.23 v -72.597 h -53.171 c 12.281,-10.633 22.402,-23.762 29.714,-38.653 H 423.23 V 102.25 c 0,-24.7852 6.543,-45.3711 18.852,-59.5508 14.598,-16.7383 36.461,-24.1797 64.551,-21.9609 v 40.039 C 480.488,60.3945 467.781,73.832 467.781,101.898 v 75.086 h 51.981 V 102.25 c 0,-24.7852 6.508,-45.3711 18.867,-59.5508 14.531,-16.7383 36.402,-24.2187 64.562,-21.9609 v 40.039 c -25.98,-0.371 -38.875,13.0547 -38.875,41.1207 v 75.086 z M 293.68,220.781 c -57.207,0 -100.387,-44.25 -100.387,-102.789 0,-56.0545 41.891,-101.5897 93.305,-101.5897 23.832,0 44.789,8.6602 59.015,24.3243 l 6.328,6.9453 V 20.7383 h 41.813 v 97.2537 c 0,58.539 -43.024,102.789 -100.074,102.789 m 0,-163.8044 c -31.102,0 -55.469,26.6406 -55.469,60.6254 0,34.609 24.367,61.75 55.469,61.75 30.597,0 55.5,-27.676 55.5,-61.75 0,-33.4379 -24.903,-60.6254 -55.5,-60.6254 M 87.4375,220.781 C 35.957,220.781 0,185.102 0,134.086 V 20.7383 H 44.5508 V 135.254 c 0,24.43 18.039,42.109 42.8867,42.109 38.7735,0 41.7425,-32.261 41.7425,-42.109 V 20.7383 h 44.543 V 134.086 c 0,52.668 -33.864,86.695 -86.2855,86.695 M 829.012,134.086 V 20.7383 H 873.59 V 134.086 c 0,27.019 18.609,45.227 46.383,45.227 2.808,0 5.64,-0.211 8.609,-0.559 v 41.16 c -4.602,0.488 -9.113,0.75 -13.465,0.75 -52.269,0 -86.105,-33.961 -86.105,-86.578 m 704.488,48.695 v 32.856 h -44.58 v -35.633 c 0,-24.832 -15.68,-42.07 -38.16,-42.07 -22.29,0 -37.8,17.238 -37.8,42.07 v 35.633 h -44.54 v -32.856 c 0,-26.14 8.52,-47.449 24.65,-61.691 l 3.12,-2.727 -3.12,-2.754 c -16.13,-14.226 -24.65,-35.5543 -24.65,-61.6793 V 20.7383 h 44.54 v 35.9765 c 0,24.8438 15.51,42.1563 37.8,42.1563 22.48,0 38.16,-17.3125 38.16,-42.1563 V 20.7383 h 44.58 v 33.1914 c 0,24.9609 -9.47,46.8553 -26.63,61.6793 l -3.19,2.754 3.19,2.727 c 17.4,15.082 26.63,36.39 26.63,61.691 m -273.89,38 c -54.94,0 -98.05,-45.23 -98.05,-102.789 0,-57.2147 43.11,-102.0389 98.05,-102.0389 55.22,0 98.43,44.8242 98.43,102.0389 0,57.559 -43.21,102.789 -98.43,102.789 m 0,-164.5349 c -30.5,0 -53.48,26.3281 -53.48,61.3559 0,35.839 22.98,62.91 53.48,62.91 30.52,0 53.56,-27.071 53.56,-62.91 0,-35.0278 -23.04,-61.3559 -53.56,-61.3559 M 1054.39,219.914 c -23.2,0 -42.08,-7.519 -56.249,-22.41 l -6.325,-6.563 v 97.293 H 946.922 V 117.992 c 0,-58.1248 43.168,-102.0389 100.388,-102.0389 57.03,0 100.04,43.9141 100.04,102.0389 0,56.223 -41.71,101.922 -92.96,101.922 m -7.08,-162.9374 c -30.58,0 -55.494,27.1875 -55.494,60.6254 0,34.074 24.914,61.75 55.494,61.75 31.1,0 55.52,-27.141 55.52,-61.75 0,-33.9848 -24.42,-60.6254 -55.52,-60.6254"
         style="fill:#4e5c68;fill-opacity:1;fill-rule:nonzero;stroke:none"
         id="path26" /></g></g></svg>
