<?xml version="1.0" encoding="UTF-8"?>
<svg width="48px" height="48px" viewBox="0 0 48 48" version="1.1" xmlns="http://www.w3.org/2000/svg" xmlns:xlink="http://www.w3.org/1999/xlink">
    <circle cx="24" cy="24" r="24" fill="#ffffff"></circle>
    <path fill="#171A1C" transform="translate(12.000000, 12.000000)" d="M17.5527864,6.7236068 C17.6916418,6.65417908 17.8447549,6.61803399 18,6.61803399 C18.5522847,6.61803399 19,7.06574924 19,7.61803399 L19,16.381966 C19,16.5372111 18.9638549,16.6903242 18.8944272,16.8291796 C18.6474379,17.3231581 18.0467649,17.5233825 17.5527864,17.2763932 L8.78885438,12.8944272 C8.59532698,12.7976635 8.43840449,12.640741 8.34164079,12.4472136 C8.09465154,11.9532351 8.29487588,11.3525621 8.78885438,11.1055728 L17.5527864,6.7236068 Z M6,6 C6.55228475,6 7,6.44771525 7,7 L7,17 C7,17.5522847 6.55228475,18 6,18 C5.44771525,18 5,17.5522847 5,17 L5,7 C5,6.44771525 5.44771525,6 6,6 Z" id="path-3"></path>
</svg>
