<?xml version="1.0" encoding="UTF-8"?>
<svg width="48px" height="48px" viewBox="0 0 48 48" version="1.1" xmlns="http://www.w3.org/2000/svg" xmlns:xlink="http://www.w3.org/1999/xlink">
    <!-- Generator: Sketch 53.2 (72643) - https://sketchapp.com -->
    <title>Icon/Playback</title>
    <desc>Created with Sketch.</desc>
    <defs>
        <circle id="path-1" cx="24" cy="24" r="24"></circle>
        <path d="M11.9999623,3 C7.0383833,3 3,7.0383833 3,11.9999623 C3,16.9615411 7.0383833,20.9999247 11.9999623,20.9999247 C16.9615411,20.9999247 20.9999247,16.9615411 20.9999247,11.9999623 C21.0037499,11.7294865 20.8616438,11.4779035 20.6280216,11.3415493 C20.3943994,11.2051951 20.1054562,11.2051951 19.871834,11.3415493 C19.6382118,11.4779035 19.4961058,11.7294865 19.499931,11.9999623 C19.499931,16.1508455 16.1508455,19.499931 11.9999623,19.499931 C7.84907951,19.499931 4.49999372,16.1508455 4.49999372,11.9999623 C4.49999372,7.84907951 7.84907951,4.49999372 11.9999623,4.49999372 C13.883935,4.49999372 15.5928081,5.19825843 16.9086333,6.34129459 L15.8535032,7.39642463 C15.6582411,7.59168678 15.6582411,7.90826926 15.8535032,8.10353141 C15.9472714,8.19729961 16.0744484,8.24997803 16.2070566,8.24997803 L19.499931,8.24997803 L19.499931,4.95710385 C19.499931,4.68096148 19.2760733,4.45710385 18.999931,4.45710385 C18.8673227,4.45710385 18.7401457,4.50978229 18.6463775,4.6035505 L17.9706409,5.27928734 C16.3803145,3.86652627 14.290341,3 11.9999623,3 Z" id="path-3"></path>
    </defs>
    <g id="Symbols" stroke="none" stroke-width="1" fill="none" fill-rule="evenodd">
        <g id="Panel/Large/Player-Controls/Left" transform="translate(0.000000, -16.000000)">
            <g id="Button/Circular/Icon" transform="translate(0.000000, 16.000000)">
                <g id="BG" stroke-width="1" fill-rule="evenodd">
                    <mask id="mask-2" fill="white">
                        <use xlink:href="#path-1"></use>
                    </mask>
                    <use fill="#D8D8D8" xlink:href="#path-1"></use>
                    <g id="z_colours/grey/mid" mask="url(#mask-2)" fill="#DDDDDD">
                        <rect id="Rectangle" x="0" y="0" width="48" height="48"></rect>
                    </g>
                </g>
                <g id="Icon/Skip/Backward" transform="translate(9.5, 9.5) scale(1.2)">
                    <mask id="mask-4" fill="white">
                        <use xlink:href="#path-3"></use>
                    </mask>
                    <use id="Shape" fill="#000000" fill-rule="nonzero" transform="translate(12.000000, 11.999962) scale(-1, 1) translate(-12.000000, -11.999962) " xlink:href="#path-3"></use>
                    <text id="10" font-family="HelveticaNeue-Bold, Helvetica Neue" font-size="8" font-weight="bold" fill="#000000">
                        <tspan x="7.552" y="15">10</tspan>
                    </text>
                </g>
            </g>
        </g>
    </g>
</svg>
